<svg width="24" height="24" xmlns="http://www.w3.org/2000/svg"><g fill="none" fill-rule="evenodd"><path d="M24 12c0-6.627-5.373-12-12-12S0 5.373 0 12s5.373 12 12 12 12-5.373 12-12" fill="#F0F2F3"/><path d="M12 22C6.486 22 2 17.514 2 12S6.486 2 12 2s10 4.486 10 10-4.486 10-10 10m0-22C5.373 0 0 5.373 0 12s5.373 12 12 12 12-5.373 12-12S18.627 0 12 0" fill="#007ce2"/><path d="M16.628 11h-3.641V7a1 1 0 1 0-2 0v4H7.372a1 1 0 0 0 0 2h3.615v4a1 1 0 0 0 2 0v-4h3.64a1 1 0 1 0 0-2" fill="#007ce2"/></g></svg>