<svg width="40" height="44" xmlns="http://www.w3.org/2000/svg" xmlns:xlink="http://www.w3.org/1999/xlink"><g fill="none" fill-rule="evenodd"><style>.a{fill:#003764}</style><defs><path id="a" d="M0 0h40v44H0z"/></defs><mask id="b" fill="#fff"><use xlink:href="#a"/></mask><path d="M38.75 42.114c0 .348-.28.629-.625.629H1.875a.627.627 0 0 1-.625-.629V1.886c0-.346.28-.628.625-.628h36.25c.345 0 .625.282.625.627v40.23zM38.125.002H1.875A1.882 1.882 0 0 0 0 1.885v40.228C0 43.153.841 44 1.875 44h36.25A1.883 1.883 0 0 0 40 42.114V1.885A1.882 1.882 0 0 0 38.125 0z" class="a" mask="url(#b)"/><path d="M25.854 5.91h9.133v4.57h-9.134a6.263 6.263 0 0 0 .435-2.285c0-.806-.157-1.576-.434-2.285m-5.793 7.292c-2.744 0-4.979-2.247-4.979-5.007s2.235-5.006 4.98-5.006c2.743 0 4.976 2.246 4.976 5.006 0 2.76-2.233 5.007-4.977 5.007m-5.793-2.722H4.912V5.91h9.357a6.247 6.247 0 0 0-.437 2.285c0 .807.159 1.576.436 2.285m5.793-8.548a6.216 6.216 0 0 0-5.131 2.72H3.662v7.086H14.93a6.215 6.215 0 0 0 5.131 2.72 6.214 6.214 0 0 0 5.13-2.72h11.046V4.653H25.19a6.215 6.215 0 0 0-5.13-2.721" class="a"/><path d="M20.061 10.726a2.527 2.527 0 0 1-2.517-2.531 2.527 2.527 0 0 1 2.517-2.531 2.527 2.527 0 0 1 2.516 2.53 2.526 2.526 0 0 1-2.516 2.532m0-6.318c-2.077 0-3.767 1.699-3.767 3.787 0 2.089 1.69 3.788 3.767 3.788s3.766-1.7 3.766-3.788-1.689-3.787-3.766-3.787m14.925 33.725H4.912V16.556h9.362v12.936h1.433v2.926h3.708v-2.926h1.292v2.926h3.708v-2.926h1.432V16.556h9.14v21.577zm-18.029-6.972h1.208v-1.668h-1.208v1.668zm5 0h1.208v-1.668h-1.208v1.668zm-6.433-6.018h9.066v-1.257h-9.066v-7.33h9.073v11.68h-9.073v-3.093zm-1.25-9.844H3.662v24.092h32.574V15.3H14.274z" class="a"/></g></svg>