<svg width="66" height="70" xmlns="http://www.w3.org/2000/svg"><g fill="#003764" fill-rule="evenodd"><path d="M64 67c0 .6-.4 1-1 1H3c-.6 0-1-.4-1-1V3c0-.6.4-1 1-1h60c.6 0 1 .4 1 1v64zM63 0H3C1.3 0 0 1.3 0 3v64c0 1.7 1.3 3 3 3h60c1.7 0 3-1.3 3-3V3c0-1.7-1.3-3-3-3z"/><path d="M57.8 9.4v7.3H42.6c.5-1.1.7-2.4.7-3.6 0-1.2-.3-2.5-.7-3.6h15.2v-.1zM33.1 21c-4.6 0-8.3-3.6-8.3-8s3.7-8 8.3-8c4.6 0 8.3 3.6 8.3 8s-3.7 8-8.3 8zM8 16.7V9.4h15.5c-.5 1.1-.7 2.4-.7 3.6 0 1.2.3 2.5.7 3.6H8v.1zM33.1 3.1c-3.5 0-6.6 1.7-8.4 4.3H6v11.3h18.6c1.9 2.6 4.9 4.3 8.4 4.3s6.6-1.7 8.4-4.3h18.2V7.4H41.5c-1.8-2.6-4.9-4.3-8.4-4.3z"/><path d="M33.1 17.1c-2.3 0-4.2-1.8-4.2-4s1.9-4 4.2-4c2.3 0 4.2 1.8 4.2 4s-1.9 4-4.2 4m0-10.1c-3.4 0-6.2 2.7-6.2 6s2.8 6 6.2 6c3.4 0 6.2-2.7 6.2-6s-2.8-6-6.2-6M57.8 26.3v34.3H8V26.3h15.5v20.6h2.4v4.7H32v-4.7h2.2v4.7h6.1v-4.7h2.4V26.3h15.1zM27.9 49.6H30v-2.7h-2.1v2.7zm8.3 0h2.1v-2.7h-2.1v2.7zm4.4-23.3v18.6H25.5V40h15v-2h-15V26.3h15.1zm-17-2H6v38.3h53.7V24.3H23.6z"/></g></svg>