<svg width="66" height="70" xmlns="http://www.w3.org/2000/svg"><g fill="none" fill-rule="evenodd"><style>.a{fill:#003764}</style><path d="M63 0H3C1.3 0 0 1.3 0 3v64c0 1.7 1.3 3 3 3h60c1.7 0 3-1.3 3-3V3c0-1.7-1.3-3-3-3zm1 67c0 .6-.4 1-1 1H3c-.6 0-1-.4-1-1V3c0-.6.4-1 1-1h60c.6 0 1 .4 1 1v64z" class="a"/><path d="M33.1 3.1c-3.5 0-6.6 1.7-8.4 4.3H6v11.3h18.6c1.9 2.6 4.9 4.3 8.4 4.3s6.6-1.7 8.4-4.3h18.2V7.4H41.5c-1.8-2.6-4.9-4.3-8.4-4.3zM8 16.7V9.4h15.5c-.5 1.1-.7 2.4-.7 3.6s.3 2.5.7 3.6H8zM33.1 21c-4.6 0-8.3-3.6-8.3-8s3.7-8 8.3-8 8.3 3.6 8.3 8-3.7 8-8.3 8zM57.8 9.4v7.3H42.6c.5-1.1.7-2.4.7-3.6s-.3-2.5-.7-3.6h15.2z" class="a"/><path d="M33.1 7c-3.4 0-6.2 2.7-6.2 6s2.8 6 6.2 6 6.2-2.7 6.2-6-2.8-6-6.2-6zm0 10.1c-2.3 0-4.2-1.8-4.2-4s1.9-4 4.2-4c2.3 0 4.2 1.8 4.2 4s-1.9 4-4.2 4zm-9.5 7.2H6v38.3h53.7V24.3H23.6zm17 2v18.6H25.5V40h15v-2h-15V26.3h15.1zm-4.4 20.6h2.1v2.7h-2.1v-2.7zm-8.3 0H30v2.7h-2.1v-2.7zm29.9-20.6v34.3H8V26.3h15.5v20.6h2.4v4.7H32v-4.7h2.2v4.7h6.1v-4.7h2.4V26.3h15.1z" class="a"/></g></svg>