<svg width="64" height="70" xmlns="http://www.w3.org/2000/svg" xmlns:xlink="http://www.w3.org/1999/xlink"><defs><style>.a{fill:#003764}</style><path id="a" d="M0 0h64v70H0z"/><path id="c" d="M0 70h64V0H0z"/></defs><g fill="none" fill-rule="evenodd"><mask id="b" fill="#fff"><use xlink:href="#a"/></mask><path d="M61 68H3c-.6 0-1-.4-1-1V25.8h60V67c0 .5-.5 1-1 1zM2 23.8h60v-5H2v5zm54.3-7H42.6l3-6.2c.2-.5 0-1.1-.5-1.3-.5-.2-1.1 0-1.3.5l-3.4 7.1h-2.8l3-6.2c.2-.5 0-1.1-.5-1.3-.5-.2-1.1 0-1.3.5L35.4 17h-2.8l3-6.2c.2-.5 0-1.1-.5-1.3-.5-.2-1.1 0-1.3.5l-3.4 7.1h-2.8l3-6.2c.2-.5 0-1.1-.5-1.3-.5-.2-1.1 0-1.3.5l-3.4 7.1H7.8v-3c0-3.7 3-6.7 6.7-6.7h35.1c3.7 0 6.7 3 6.7 6.7v2.6zM3 2h58c.6 0 1 .4 1 1v13.8h-3.7v-3c0-4.8-3.9-8.7-8.7-8.7H14.5c-4.8 0-8.7 3.9-8.7 8.7v3H2V3c0-.6.4-1 1-1zm58-2H3C1.3 0 0 1.3 0 3v64c0 1.7 1.3 3 3 3h58c1.7 0 3-1.3 3-3V3c0-1.7-1.4-3-3-3z" class="a" mask="url(#b)"/><path d="M32 19.8a1.5 1.5 0 1 1 0 3 1.5 1.5 0 0 1 0-3m-4.7 0a1.5 1.5 0 1 1 0 3 1.5 1.5 0 0 1 0-3m-4.7 0a1.5 1.5 0 1 1 0 3 1.5 1.5 0 0 1 0-3m-4.6 0a1.5 1.5 0 1 1 0 3 1.5 1.5 0 0 1 0-3" class="a"/><mask id="d" fill="#fff"><use xlink:href="#c"/></mask><path class="a" mask="url(#d)" d="M37 22.3h23v-2H37zm-33.2 0h5v-2h-5z"/></g></svg>