<svg width="40" height="44" xmlns="http://www.w3.org/2000/svg" xmlns:xlink="http://www.w3.org/1999/xlink"><g fill="none" fill-rule="evenodd"><style>.a{fill:#003764}</style><defs><path id="a" d="M0 0h40v44H0z"/><path id="c" d="M0 44h40V0H0z"/></defs><mask id="b" fill="#fff"><use xlink:href="#a"/></mask><path d="M38.125 42.742H1.875a.627.627 0 0 1-.625-.628V16.245h37.5v25.87c0 .346-.28.627-.625.627zm-2.94-32.176H26.63l1.875-3.905a.63.63 0 0 0-.291-.839.622.622 0 0 0-.835.293l-2.137 4.451h-1.746l1.875-3.905a.63.63 0 0 0-.291-.839.622.622 0 0 0-.834.293l-2.138 4.451h-1.746l1.875-3.905a.629.629 0 0 0-.291-.839.622.622 0 0 0-.834.293l-2.138 4.451h-1.745l1.875-3.905a.63.63 0 0 0-.291-.839.621.621 0 0 0-.834.293l-2.138 4.451H4.904V8.698c0-2.306 1.866-4.18 4.158-4.18h21.966c2.293 0 4.158 1.874 4.158 4.18v1.868zM5.339 13.774v1.214H1.25v-3.165h37.5v3.165H8.463v-1.214H5.338zM1.875 1.257h36.25c.345 0 .625.282.625.63v8.68h-2.314v-1.87c0-2.999-2.426-5.438-5.408-5.438H9.062c-2.981 0-5.408 2.44-5.408 5.438v1.868H1.25v-8.68c0-.347.28-.629.625-.629zM38.125 0H1.875A1.883 1.883 0 0 0 0 1.886v40.228C0 43.154.84 44 1.875 44h36.25A1.883 1.883 0 0 0 40 42.114V1.886C40 .846 39.159 0 38.125 0z" class="a" mask="url(#b)"/><path d="M20 14.349a.94.94 0 0 0 .937-.943.94.94 0 0 0-.937-.943.94.94 0 0 0-.937.943.94.94 0 0 0 .937.943m-2.917 0a.94.94 0 0 0 .937-.943.94.94 0 0 0-.937-.943.94.94 0 0 0-.937.943.94.94 0 0 0 .937.943m-2.917 0a.94.94 0 0 0 .937-.943.94.94 0 0 0-.937-.943.94.94 0 0 0-.937.943.94.94 0 0 0 .937.943m-2.917 0a.94.94 0 0 0 .937-.943.94.94 0 0 0-.937-.943.94.94 0 0 0-.937.943.94.94 0 0 0 .937.943" class="a"/><mask id="d" fill="#fff"><use xlink:href="#c"/></mask><path class="a" mask="url(#d)" d="M23.126 14.035h14.375v-1.257H23.126z"/></g></svg>