<svg width="67" height="73" xmlns="http://www.w3.org/2000/svg"><g fill="#003764" fill-rule="evenodd"><path d="M62.9 6.7H52.7V2.6c0-1.4-1.2-2.6-2.6-2.6H48L3.1 3.7C1.4 3.7 0 5.1 0 6.7V71c0 .6.4 1 1 1s1-.4 1-1V6.7c0-.6.5-1 1.1-1l42.3-3.5V71c0 .6.4 1 1 1s1-.4 1-1V2.6c0-.3.3-.6.6-.6h2.1c.3 0 .6.2.6.6V71c0 .6.4 1 1 1s1-.4 1-1V8.7H63c.6 0 1.1.4 1.1 1V71c0 .6.4 1 1 1s1-.4 1-1V9.7c-.1-1.6-1.5-3-3.2-3"/><path d="M36.6 62.7v6.6c0 .4-.3.7-.7.7h-.5c-.4 0-.7-.3-.7-.7v-19c0-.4.3-.7.7-.7h.5c.4 0 .7.3.7.7v12.4zm3.2 2c.2 0 .4.3.4.6s-.2.7-.4.7h-1.2v-1.2h1.2v-.1zm0-10.8c.2 0 .4.3.4.6s-.2.6-.4.6h-1.2v-1.2h1.2zm0 3.3c1.3 0 2.4-1.2 2.4-2.6 0-1.4-1.1-2.6-2.4-2.6h-1.2v-1.7c0-1.5-1.2-2.7-2.7-2.7h-.5a2.69 2.69 0 0 0-2.7 2.7v19.1c0 1.5 1.2 2.7 2.7 2.7h.5c1.5 0 2.7-1.2 2.7-2.7V68h1.2c1.3 0 2.4-1.2 2.4-2.6 0-1.4-1.1-2.6-2.4-2.6h-1.2v-5.6h1.2zM32.3 28l-2.3-.7 1.5-1.4c.3-.3.3-.7 0-1-.3-.3-.7-.3-1 0l-2.1 1.9-4.2-1.3 3.2-2.9 2.8.9c.4.1.8-.1.9-.4.1-.4-.1-.7-.5-.9l-2-.6 1.8-1.6c.3-.3.3-.7 0-1-.3-.3-.7-.3-1 0l-1.8 1.6-.5-2c-.1-.4-.5-.6-.8-.5-.4.1-.6.5-.5.8l.7 2.7-3.2 2.9-1-4.1 2.2-1.9c.3-.3.3-.7 0-1-.3-.3-.7-.3-1 0l-1.6 1.4-.5-2.3c-.1-.4-.5-.6-.8-.5-.4.1-.6.4-.5.8l.5 2.3-2-.6c-.4-.1-.8.1-.9.5-.1.2 0 .5.2.7.1.1.2.2.3.2l2.8.8 1 4.1-4.2-1.3-.6-2.8c-.1-.4-.5-.6-.8-.5-.4.1-.6.4-.5.8l.4 2-2.3-.7c-.4-.1-.8.1-.9.4-.1.2 0 .5.2.7.1.1.2.2.3.2l2.3.7-1.5 1.4c-.3.3-.3.7 0 1 .3.3.7.3 1 0l2.1-1.9 4.2 1.3-3.3 2.8-2.8-.9c-.4-.1-.8.1-.9.4-.1.2 0 .5.2.7.1.1.2.1.3.2l2 .6-1.8 1.6c-.3.3-.3.7 0 1 .3.3.7.3 1 0l1.8-1.6.5 2c0 .1.1.2.2.3.2.2.4.3.7.2.4-.1.6-.5.5-.8l-.8-2.7 3.2-2.9 1 4.1-2.2 1.9c-.3.3-.3.7-.1 1 .3.3.7.3 1 0l1.6-1.4.5 2.3c0 .1.1.2.2.3.2.2.4.3.7.2.4-.1.6-.4.5-.8l-.5-2.3 2 .6c.4.1.8-.1.9-.5.1-.4-.1-.7-.5-.9l-2.7-.6-1-4.1 4.2 1.3.6 2.8c0 .1.1.2.2.3.2.2.4.3.7.2.4-.1.6-.4.5-.8l-.4-2 2.3.7c.4.1.8-.1.9-.4 0-.5-.2-.9-.6-1"/></g></svg>