<svg width="40" height="44" xmlns="http://www.w3.org/2000/svg" xmlns:xlink="http://www.w3.org/1999/xlink"><g fill="none" fill-rule="evenodd"><style>.a{fill:#003764}</style><defs><path id="a" d="M0 0h40v44H0z"/><path id="c" d="M.811.735h5.78V16H.81z"/></defs><mask id="b" fill="#fff"><use xlink:href="#a"/></mask><path d="M38.125 4.218h-6.19V1.594C31.935.715 31.219 0 30.34 0h-1.238c-.014 0-.026.004-.04.004-.004.001-.01-.002-.014 0L1.875 2.342A1.877 1.877 0 0 0 0 4.218v39.157a.625.625 0 0 0 1.25 0V4.218c0-.345.28-.625.679-.627l25.599-2.204c-.01.068-.021.136-.021.207v41.781a.625.625 0 0 0 1.25 0V1.595c0-.185.145-.332.326-.342l.044-.004h1.213c.19 0 .345.155.345.345v41.781a.625.625 0 1 0 1.25 0V5.468h6.19c.344 0 .625.28.625.625v37.282a.625.625 0 0 0 1.25 0V6.093a1.877 1.877 0 0 0-1.875-1.875" class="a" mask="url(#b)"/><g transform="translate(19 28)"><mask id="d" fill="#fff"><use xlink:href="#c"/></mask><path d="M5.101 11.46c.11 0 .24.17.24.39s-.13.39-.24.39h-.677v-.78h.677zM3.174 3.451V14.32a.43.43 0 0 1-.428.43H2.49a.434.434 0 0 1-.429-.43V2.414c0-.232.196-.429.43-.429h.255c.231 0 .428.197.428.43v1.037zm1.25 1.25h.677c.11 0 .24.171.24.39 0 .22-.13.391-.24.391h-.677v-.78zm.677 2.031c.821 0 1.49-.736 1.49-1.64 0-.905-.669-1.64-1.49-1.64h-.677V2.413c0-.925-.753-1.679-1.678-1.679H2.49c-.926 0-1.679.754-1.679 1.68V14.32c0 .927.753 1.68 1.68 1.68h.255a1.68 1.68 0 0 0 1.678-1.68v-.83h.677c.821 0 1.49-.735 1.49-1.64 0-.905-.669-1.64-1.49-1.64h-.677V6.732h.677z" class="a" mask="url(#d)"/></g><path d="M19.6 17.498l-1.399-.437.931-.874a.427.427 0 0 0-.583-.623l-1.284 1.204-2.519-.787 1.941-1.788 1.675.541a.427.427 0 0 0 .263-.812l-1.216-.392 1.079-.994a.426.426 0 0 0-.578-.627l-1.08.993-.29-1.244a.426.426 0 0 0-.831.194l.4 1.714-1.94 1.787-.578-2.575 1.306-1.18a.427.427 0 0 0 .03-.603l-.002-.002a.427.427 0 0 0-.6-.028l-.948.857-.32-1.431a.427.427 0 0 0-.834.187l.321 1.431-1.223-.37a.427.427 0 0 0-.246.817l1.684.51.577 2.574-2.518-.787-.37-1.721a.427.427 0 0 0-.834.179l.268 1.249-1.4-.437a.427.427 0 0 0-.253.814l1.399.438-.933.874a.426.426 0 0 0-.021.599l.003.003a.427.427 0 0 0 .603.02l1.284-1.204 2.518.787-1.94 1.788-1.675-.541a.427.427 0 1 0-.263.813l1.215.392-1.078.993a.427.427 0 1 0 .579.628l1.078-.993.29 1.244a.428.428 0 0 0 .832-.195l-.4-1.714 1.94-1.787.578 2.575-1.306 1.18a.426.426 0 0 0-.03.602l.003.004a.426.426 0 0 0 .599.027l.949-.857.32 1.431a.426.426 0 0 0 .51.323.427.427 0 0 0 .322-.51l-.32-1.43 1.221.37a.427.427 0 0 0 .248-.817l-1.685-.51-.577-2.575 2.518.787.37 1.721a.422.422 0 0 0 .507.327.425.425 0 0 0 .328-.506l-.268-1.249 1.399.437a.427.427 0 1 0 .255-.814" class="a"/></g></svg>