<svg width="62" height="70" xmlns="http://www.w3.org/2000/svg" xmlns:xlink="http://www.w3.org/1999/xlink"><g fill="none" fill-rule="evenodd"><style>.a{fill:#003764}</style><defs><path id="a" d="M0 0h62v70H0z"/></defs><mask id="b" fill="#fff"><use xlink:href="#a"/></mask><path d="M2 52.4h58v-8.801H2V52.4zm15.8-28.1h26.4l12.3 17.2H5.6l12.2-17.2zM18.3 3c0-.6.4-1 1-1h23.3c.6 0 1 .4 1 1v19.3H18.3V3zM60 41.6h-1.1L45.6 22.9V3c0-1.7-1.3-3-3-3H19.3c-1.7 0-3 1.3-3 3v20L3.1 41.6H2c-1.1 0-2 .9-2 2v8.8c0 1.1.9 2 2 2h58c1.1 0 2-.9 2-2v-8.8c0-1.1-.9-2-2-2z" class="a" mask="url(#b)"/><path d="M21.5 49.8c1 .5 2.1 0 2.6-1 .4-1 0-2.2-1-2.7s-2.1 0-2.6 1 0 2.3 1 2.7m5.7 0c1 .5 2.1 0 2.6-1 .4-1 0-2.2-1-2.7s-2.1 0-2.6 1 .1 2.3 1 2.7m5.8 0c1 .5 2.1 0 2.6-1 .4-1 0-2.2-1-2.7s-2.1 0-2.6 1 0 2.3 1 2.7m5.7 0c1 .5 2.1 0 2.6-1 .4-1 0-2.2-1-2.7s-2.1 0-2.6 1 .1 2.3 1 2.7M5.5 49h5.9c.6 0 1-.5 1-1 0-.6-.5-1-1-1H5.5c-.6 0-1 .5-1 1 0 .6.4 1 1 1m18.6 9.5c-.3-.9-.8-1.5-.8-1.5-.2-.3-.6-.4-.9-.4-.7 0-1.2.5-1.2 1.1 0 .3.1.5.3.7 0 0 .3.3.4.7.1.5.1.8-.3 1.2-1 .9-1.3 2.1-.9 3.3.3.8.8 1.4.8 1.5.2.2.6.4.9.4.7 0 1.2-.5 1.2-1.1 0-.3-.1-.5-.3-.7 0 0-.3-.3-.4-.7-.1-.5-.1-.8.3-1.1.9-1 1.3-2.2.9-3.4m9.1.7c-.4-1.3-1.1-2.1-1.1-2.2-.2-.3-.6-.4-1-.4-.7 0-1.2.5-1.2 1.1 0 .3.1.5.2.7 0 0 .5.6.7 1.5.3 1 .1 1.9-.7 2.7-1.3 1.4-1.7 3-1.2 4.8.4 1.3 1.1 2.1 1.1 2.2.2.3.6.4 1 .4.7 0 1.2-.5 1.2-1.1 0-.3-.1-.5-.2-.7 0 0-.5-.6-.7-1.5-.3-1-.1-1.9.7-2.7 1.3-1.4 1.7-3 1.2-4.8m8.4-.7c-.3-.9-.8-1.5-.8-1.5-.2-.3-.6-.4-.9-.4-.7 0-1.2.5-1.2 1.1 0 .3.1.5.3.7 0 0 .3.3.4.7.1.5.1.8-.3 1.2-1 .9-1.3 2.1-.9 3.3.3.8.8 1.4.8 1.5.2.2.6.4.9.4.7 0 1.2-.5 1.2-1.1 0-.3-.1-.5-.3-.7 0 0-.3-.3-.4-.7-.1-.5-.1-.8.3-1.1.9-1 1.3-2.2.9-3.4" class="a" mask="url(#b)"/></g></svg>