<svg width="40" height="44" xmlns="http://www.w3.org/2000/svg" xmlns:xlink="http://www.w3.org/1999/xlink"><g fill="none" fill-rule="evenodd"><style>.a{fill:#003764}</style><defs><path id="a" d="M0 0h40v34.194H0z"/></defs><mask id="b" fill="#fff"><use xlink:href="#a"/></mask><path d="M38.748 32.931H1.25v-5.538h37.5l-.002 5.538zM11.477 15.31h17.08l7.916 10.82H3.562l7.915-10.82zm.31-13.414c0-.349.28-.631.625-.631h15.15c.345 0 .625.282.625.63v12.152h-16.4V1.895zM38.75 26.13h-.724l-8.59-11.743V1.894A1.884 1.884 0 0 0 27.563 0h-15.15c-1.035 0-1.875.85-1.875 1.895v12.574l-8.53 11.66H1.25c-.69 0-1.25.567-1.25 1.263v5.54c0 .695.56 1.262 1.25 1.262h37.5c.689 0 1.25-.567 1.25-1.263v-5.538c0-.697-.561-1.264-1.25-1.264z" class="a" mask="url(#b)"/><path d="M13.858 31.315c.63.285 1.37 0 1.652-.637a1.27 1.27 0 0 0-.63-1.67 1.245 1.245 0 0 0-1.652.638c-.282.637 0 1.384.63 1.669m3.712 0c.63.285 1.37 0 1.651-.637a1.27 1.27 0 0 0-.63-1.67 1.245 1.245 0 0 0-1.652.638c-.282.637 0 1.384.63 1.669m3.711 0c.63.285 1.37 0 1.652-.637a1.27 1.27 0 0 0-.631-1.67 1.245 1.245 0 0 0-1.651.638c-.282.637 0 1.384.63 1.669m3.711 0c.63.285 1.37 0 1.651-.637a1.27 1.27 0 0 0-.63-1.67 1.245 1.245 0 0 0-1.651.638c-.282.637 0 1.384.63 1.669m-21.467-.492h3.884a.654.654 0 0 0 .655-.654v-.013a.654.654 0 0 0-.655-.654H3.524a.654.654 0 0 0-.654.654v.013c0 .362.293.654.654.654m12.01 5.927a2.86 2.86 0 0 0-.54-.957.812.812 0 0 0-.61-.263c-.433 0-.784.316-.784.705 0 .168.065.323.175.444 0 .002.17.204.252.46.095.3.037.52-.197.732-.638.575-.848 1.323-.594 2.106.17.524.5.895.543.942l.003.002a.82.82 0 0 0 .603.255c.433 0 .784-.316.784-.705a.664.664 0 0 0-.18-.451 1.4 1.4 0 0 1-.247-.441c-.095-.287-.035-.5.198-.711.636-.575.847-1.328.594-2.117m5.857.455a4.189 4.189 0 0 0-.735-1.398.819.819 0 0 0-.625-.278c-.432 0-.783.316-.783.705 0 .159.06.307.16.424h-.003c.004.005.33.404.482.947.18.652.035 1.205-.443 1.69-.837.854-1.104 1.9-.772 3.027a4.17 4.17 0 0 0 .736 1.398h.001c.142.17.368.279.622.279.434 0 .785-.316.785-.707a.655.655 0 0 0-.159-.424h.002a2.86 2.86 0 0 1-.482-.947c-.18-.652-.036-1.203.443-1.69.836-.852 1.104-1.9.771-3.026m5.439-.456a2.854 2.854 0 0 0-.54-.957.814.814 0 0 0-.61-.263c-.433 0-.785.316-.785.705 0 .168.066.323.175.444h-.001c.002.002.17.204.252.46.097.3.037.52-.197.732-.636.575-.847 1.323-.593 2.106.17.524.5.895.544.942v.002c.146.155.36.255.605.255.433 0 .783-.316.783-.705a.66.66 0 0 0-.18-.451c-.001-.002-.167-.195-.247-.441-.093-.287-.034-.5.2-.711.635-.575.845-1.328.594-2.117" class="a"/></g></svg>