<svg width="40" height="33" xmlns="http://www.w3.org/2000/svg" xmlns:xlink="http://www.w3.org/1999/xlink"><g fill="none" fill-rule="evenodd"><style>.a{fill:#003764}</style><defs><path id="a" d="M0 0h40v33H0z"/><path id="c" d="M0 33h40V0H0z"/></defs><mask id="b" fill="#fff"><use xlink:href="#a"/></mask><path d="M38.788 31.167c0 .337-.272.61-.606.61H1.818a.608.608 0 0 1-.606-.61V1.834a.61.61 0 0 1 .606-.612h36.364a.61.61 0 0 1 .606.612v29.333zM38.182 0H1.818A1.827 1.827 0 0 0 0 1.834v29.333C0 32.178.815 33 1.818 33h36.364A1.828 1.828 0 0 0 40 31.167V1.834A1.828 1.828 0 0 0 38.182 0z" class="a" mask="url(#b)"/><mask id="d" fill="#fff"><use xlink:href="#c"/></mask><path d="M5.369 27.575h20.877V4.885H5.369v22.69zm-1.212 1.222h23.301V3.662H4.157v25.135z" class="a" mask="url(#d)"/><path d="M9.46 21.291h12.461v-9.998H9.46v9.998zm-1.212 1.222h14.885V10.071H8.248v12.442zM29.203 8.326h1.876V6.419h-1.876zm3.075 0h1.877V6.419h-1.877zm3.076 0h1.877V6.419h-1.877zm-6.151 2.86h1.876V9.279h-1.876zm3.075 0h1.877V9.279h-1.877zm3.076 0h1.877V9.279h-1.877zm-6.151 3.018h1.876v-1.906h-1.876zm3.075 0h1.877v-1.906h-1.877zm3.076 0h1.877v-1.906h-1.877zm-6.151-9.193h8.028V3.692h-8.028zm1.212 22.403h5.604v-1.581h-5.604v1.581zm-1.212 1.223h8.028v-4.025h-8.028v4.025z" class="a" mask="url(#d)"/></g></svg>