<svg width="68" height="56" xmlns="http://www.w3.org/2000/svg" xmlns:xlink="http://www.w3.org/1999/xlink"><defs><path id="a" d="M0 56h68V0H0z"/></defs><g fill="none" fill-rule="evenodd"><path d="M66 53c0 .6-.4 1-1 1H3c-.6 0-1-.4-1-1V3c0-.6.4-1 1-1h62c.6 0 1 .4 1 1v50zM65 0H3C1.3 0 0 1.3 0 3v50c0 1.7 1.3 3 3 3h62c1.7 0 3-1.3 3-3V3c0-1.7-1.3-3-3-3z" fill="#003764"/><path d="M56.5 29.1c2.1 0 3.8 1.7 3.8 3.9s-1.7 3.9-3.8 3.9c-2.1 0-3.8-1.7-3.8-3.9s1.7-3.9 3.8-3.9m-5.8 3.8c0 3.2 2.6 5.9 5.8 5.9 3.2 0 5.8-2.6 5.8-5.9 0-3.2-2.6-5.9-5.8-5.9-3.2.1-5.8 2.7-5.8 5.9" fill="#003764"/><mask id="b" fill="#fff"><use xlink:href="#a"/></mask><path d="M9.1 46.8h35.6V8.2H9.1v38.6zm-2 2.1h39.6V6.2H7.1v42.7z" fill="#003764" mask="url(#b)"/><path d="M16 36.2h21.3V19.1H16v17.1zm-2 2h25.3V17.1H14v21.1zm35.7-24.1h3.2v-3.2h-3.2zm5.2 0h3.199v-3.2H54.9zm5.2 0h3.2v-3.2h-3.2zm-10.4 4.8h3.2v-3.2h-3.2zm5.2 0h3.199v-3.2H54.9zm5.2 0h3.2v-3.2h-3.2zm-10.4 5.2h3.2v-3.2h-3.2zm5.2 0h3.199v-3.2H54.9zm5.2 0h3.2v-3.2h-3.2zM49.7 8.4h13.7V6.2H49.7zm2 38.2h9.7v-2.8h-9.7v2.8zm-2 2h13.7v-6.8H49.7v6.8z" fill="#003764" mask="url(#b)"/></g></svg>