<svg width="66" height="72" xmlns="http://www.w3.org/2000/svg"><g fill="#003764" fill-rule="evenodd"><path d="M63 70H3c-.6 0-1-.4-1-1V22.3h62V69c0 .6-.4 1-1 1M3 2h60c.6 0 1 .4 1 1v17.3H2V3c0-.6.4-1 1-1m60-2H3C1.3 0 0 1.3 0 3v66c0 1.7 1.3 3 3 3h60c1.7 0 3-1.3 3-3V3c0-1.7-1.3-3-3-3"/><path d="M8.5 29.6H57c.6 0 1-.4 1-1s-.4-1-1-1H8.5c-.6 0-1 .4-1 1s.4 1 1 1m1 32.5V37h47v25.2h-47v-.1zm47-27.1h-47c-1.1 0-2 .9-2 2v25.2c0 1.1.9 2 2 2h47c1.1 0 2-.9 2-2V37c0-1.1-.9-2-2-2zM32.8 7.9c2 0 3.6 1.6 3.6 3.6s-1.6 3.6-3.6 3.6-3.6-1.6-3.6-3.6 1.6-3.6 3.6-3.6m0 9.2c3.1 0 5.6-2.5 5.6-5.6 0-3.1-2.5-5.6-5.6-5.6-3.1 0-5.6 2.5-5.6 5.6 0 3.1 2.5 5.6 5.6 5.6M7.3 13.3c1 0 1.8-.8 1.8-1.8s-.8-1.8-1.8-1.8-1.8.8-1.8 1.8.8 1.8 1.8 1.8m7.3 0c1 0 1.8-.8 1.8-1.8s-.8-1.8-1.8-1.8-1.8.8-1.8 1.8.8 1.8 1.8 1.8m7.3-3.6a1.8 1.8 0 1 1 0 3.6 1.8 1.8 0 0 1 0-3.6m21.9 3.6c1 0 1.8-.8 1.8-1.8s-.8-1.8-1.8-1.8-1.8.8-1.8 1.8.8 1.8 1.8 1.8m7.3 0c1 0 1.8-.8 1.8-1.8s-.8-1.8-1.8-1.8-1.8.8-1.8 1.8.8 1.8 1.8 1.8m7.3-3.6a1.8 1.8 0 1 1 0 3.6 1.8 1.8 0 0 1 0-3.6"/><path d="M37.4 50c2-1 2.6-2.4 3.2-3.5.5-1 .9-1.8 2.2-2.5.3-.1.4-.3.5-.6.1-.3.1-.5-.1-.8-.3-.5-.9-.7-1.4-.4-2 1-2.6 2.4-3.2 3.5-.5 1-.9 1.8-2.2 2.5-1.4.7-2.2.6-3.3.4-.5-.1-1.1-.2-1.7-.2-.8 0-1.8.2-3 .8-2 1-2.6 2.4-3.2 3.5-.5 1-.9 1.8-2.2 2.5-.2.1-.4.3-.5.6-.1.3-.1.5.1.8.3.5.9.7 1.4.4 2-1 2.6-2.4 3.2-3.5.5-1 .9-1.8 2.2-2.5 1.4-.7 2.2-.6 3.3-.4 1.2.2 2.7.4 4.7-.6m7.8.6c-.9 1-2 1.9-3.3 2.6-3.2 1.7-5.8 1.2-7.2 1h-.2c-.2 0-.3 0-.5.1s-.4.3-.5.6c-.1.3-.1.5.1.8.2.3.4.5.8.6.7.1 1.6.3 2.7.3 2 0 4-.5 5.9-1.5 1.6-.8 2.9-1.9 4-3.1.2-.2.3-.5.2-.8 0-.3-.2-.5-.4-.7-.6-.4-1.3-.3-1.6.1m-14-5.7c.5 0 .9-.2 1.1-.5.1-.2.2-.5.1-.8-.1-.3-.2-.5-.5-.6-.2-.1-.3-.1-.4-.1-.6-.1-1.5-.2-2.6-.2-1.6 0-3.6.3-5.9 1.5-1.6.8-2.9 1.8-3.9 3.1-.3.3-.3.8-.1 1.2.1.1.1.2.3.3.4.4 1.1.3 1.5-.1.9-1 2-1.9 3.3-2.6 3.1-1.9 5.6-1.4 7.1-1.2"/></g></svg>