<svg width="40" height="44" xmlns="http://www.w3.org/2000/svg" xmlns:xlink="http://www.w3.org/1999/xlink"><g fill="none" fill-rule="evenodd"><style>.a{fill:#003764}</style><defs><path id="a" d="M0 0h40v44H0z"/></defs><mask id="b" fill="#fff"><use xlink:href="#a"/></mask><path d="M38.788 12.397H1.212V1.834a.61.61 0 0 1 .606-.611h36.364a.61.61 0 0 1 .606.61v10.564zm0 29.77a.61.61 0 0 1-.606.61H1.818a.61.61 0 0 1-.606-.61V13.619h37.576v28.548zM38.182 0H1.818A1.827 1.827 0 0 0 0 1.834v40.333C0 43.177.815 44 1.818 44h36.364A1.829 1.829 0 0 0 40 42.167V1.834A1.828 1.828 0 0 0 38.182 0z" class="a" mask="url(#b)"/><path d="M5.153 18.11h29.418a.608.608 0 0 0 .606-.61.608.608 0 0 0-.606-.611H5.153a.609.609 0 0 0-.606.61c0 .339.272.612.606.612m.607 4.49h28.48v15.377H5.76V22.601zm0 16.6h28.48a1.22 1.22 0 0 0 1.212-1.223V22.601c0-.674-.544-1.222-1.212-1.222H5.76c-.668 0-1.212.548-1.212 1.222v15.377a1.22 1.22 0 0 0 1.212 1.223zM19.862 9.208c-1.193 0-2.164-.988-2.164-2.203 0-1.215.971-2.203 2.164-2.203 1.194 0 2.165.988 2.165 2.203 0 1.215-.97 2.203-2.165 2.203m0-5.628c-1.86 0-3.376 1.536-3.376 3.425 0 1.89 1.515 3.425 3.376 3.425 1.862 0 3.377-1.536 3.377-3.425 0-1.889-1.515-3.425-3.377-3.425M4.415 5.88c-.612 0-1.108.503-1.108 1.125S3.803 8.13 4.415 8.13c.612 0 1.108-.503 1.108-1.125S5.027 5.88 4.415 5.88m4.433 0c-.612 0-1.108.503-1.108 1.125S8.236 8.13 8.848 8.13c.612 0 1.108-.503 1.108-1.125S9.462 5.88 8.85 5.88m4.431 0c-.612 0-1.108.503-1.108 1.125s.496 1.125 1.108 1.125c.612 0 1.108-.503 1.108-1.125s-.496-1.126-1.108-1.126m13.253.001c-.612 0-1.108.503-1.108 1.125s.496 1.125 1.108 1.125c.612 0 1.108-.503 1.108-1.125s-.496-1.126-1.108-1.126m4.433.001c-.612 0-1.108.503-1.108 1.125s.496 1.125 1.108 1.125c.612 0 1.108-.503 1.108-1.125s-.496-1.126-1.108-1.126m4.433.001c-.612 0-1.108.503-1.108 1.125S34.788 8.13 35.4 8.13c.612 0 1.108-.503 1.108-1.125S36.012 5.88 35.4 5.88" class="a"/><path d="M22.66 30.565c1.204-.628 1.6-1.453 1.918-2.116.296-.617.53-1.103 1.357-1.534a.64.64 0 1 0-.59-1.135c-1.205.628-1.6 1.453-1.918 2.116-.296.616-.529 1.103-1.357 1.535-.826.431-1.33.347-2.026.23a5.998 5.998 0 0 0-1.029-.108c-.515 0-1.105.103-1.799.465-1.204.628-1.598 1.452-1.915 2.114-.294.617-.527 1.102-1.353 1.534a.632.632 0 0 0-.315.376.632.632 0 0 0 .043.484.65.65 0 0 0 .861.274c1.204-.628 1.6-1.453 1.915-2.115.295-.616.528-1.1 1.353-1.532.828-.43 1.33-.346 2.024-.23.726.12 1.625.27 2.83-.358m4.718.37a6.533 6.533 0 0 1-2.011 1.588c-1.968 1.026-3.541.763-4.385.62a.62.62 0 0 0-.42.062.631.631 0 0 0-.314.377.63.63 0 0 0 .043.483.633.633 0 0 0 .464.338c.403.067.95.159 1.632.159 1.218 0 2.419-.305 3.569-.904a7.817 7.817 0 0 0 2.4-1.901.637.637 0 0 0-.078-.9.636.636 0 0 0-.9.078m-8.462-3.491l.06.006a.638.638 0 0 0 .597-.312.64.64 0 0 0-.477-.964 9.3 9.3 0 0 0-1.583-.148c-.97 0-2.213.183-3.591.9a7.833 7.833 0 0 0-2.384 1.884.638.638 0 0 0 .076.9.658.658 0 0 0 .9-.076 6.526 6.526 0 0 1 1.998-1.572c1.966-1.024 3.492-.77 4.404-.618" class="a"/></g></svg>