<svg width="40" height="42" xmlns="http://www.w3.org/2000/svg" xmlns:xlink="http://www.w3.org/1999/xlink"><g fill="none" fill-rule="evenodd"><style>.a{fill:#003764}</style><defs><path id="a" d="M0 0h40v42H0z"/></defs><mask id="b" fill="#fff"><use xlink:href="#a"/></mask><path d="M38.788 39c0 .992-.815 1.8-1.818 1.8H3.03A1.812 1.812 0 0 1 1.212 39V3c0-.993.816-1.8 1.818-1.8h33.94A1.81 1.81 0 0 1 38.788 3v36zM36.97 0H3.03C1.359 0 0 1.346 0 3v36c0 1.654 1.359 3 3.03 3h33.94c1.671 0 3.03-1.346 3.03-3V3c0-1.654-1.359-3-3.03-3z" class="a" mask="url(#b)"/><path d="M11.187 4.686c3.342 0 6.061 2.692 6.061 6 0 3.309-2.719 6-6.06 6-3.343 0-6.062-2.691-6.062-6 0-3.308 2.72-6 6.061-6m0 13.2c4.01 0 7.273-3.23 7.273-7.2s-3.263-7.2-7.273-7.2-7.272 3.23-7.272 7.2 3.262 7.2 7.272 7.2m17.625-1.2c-3.342 0-6.06-2.692-6.06-6 0-3.309 2.718-6 6.06-6 3.342 0 6.061 2.691 6.061 6 0 3.308-2.719 6-6.06 6m0-13.2c-4.01 0-7.274 3.23-7.274 7.2s3.263 7.2 7.273 7.2 7.272-3.23 7.272-7.2-3.262-7.2-7.272-7.2M11.187 33.038c-3.342 0-6.06-2.69-6.06-6 0-3.308 2.718-6 6.06-6 3.342 0 6.061 2.692 6.061 6 0 3.31-2.719 6-6.06 6m0-13.2c-4.01 0-7.273 3.23-7.273 7.2 0 3.971 3.262 7.2 7.272 7.2s7.273-3.229 7.273-7.2c0-3.97-3.263-7.2-7.273-7.2m17.625 13.2c-3.342 0-6.06-2.69-6.06-6 0-3.308 2.718-6 6.06-6 3.342 0 6.061 2.692 6.061 6 0 3.31-2.719 6-6.06 6m0-13.2c-4.01 0-7.274 3.23-7.274 7.2 0 3.971 3.263 7.2 7.273 7.2s7.272-3.229 7.272-7.2c0-3.97-3.262-7.2-7.272-7.2M14.734 36.085c-.735 0-1.332.59-1.332 1.315 0 .728.597 1.317 1.332 1.317.735 0 1.331-.589 1.331-1.317 0-.726-.596-1.315-1.33-1.315m4.659 0c-.735 0-1.332.59-1.332 1.315 0 .728.597 1.317 1.332 1.317.735 0 1.332-.589 1.332-1.317 0-.726-.597-1.315-1.332-1.315m4.66 0c-.735 0-1.331.59-1.331 1.315 0 .728.596 1.317 1.33 1.317.736 0 1.333-.589 1.333-1.317 0-.726-.597-1.315-1.332-1.315" class="a"/><path d="M11.187 30.038c-1.67 0-3.03-1.346-3.03-3s1.36-3 3.03-3c1.671 0 3.03 1.346 3.03 3s-1.359 3-3.03 3m0-7.2c-2.339 0-4.242 1.885-4.242 4.2 0 2.316 1.903 4.2 4.242 4.2 2.34 0 4.243-1.884 4.243-4.2 0-2.315-1.904-4.2-4.243-4.2" class="a"/></g></svg>