<svg width="66" height="70" xmlns="http://www.w3.org/2000/svg" xmlns:xlink="http://www.w3.org/1999/xlink"><defs><path id="a" d="M0 0h66v70H0z"/></defs><g fill="none" fill-rule="evenodd"><mask id="b" fill="#fff"><use xlink:href="#a"/></mask><path d="M64 65c0 1.7-1.3 3-3 3H5c-1.7 0-3-1.3-3-3V5c0-1.7 1.3-3 3-3h56c1.7 0 3 1.3 3 3v60zM61 0H5C2.2 0 0 2.2 0 5v60c0 2.8 2.2 5 5 5h56c2.8 0 5-2.2 5-5V5c0-2.8-2.2-5-5-5z" fill="#003764" mask="url(#b)"/><path d="M18.5 7.8c5.5 0 10 4.5 10 10s-4.5 10-10 10-10-4.5-10-10 4.5-10 10-10m0 22c6.6 0 12-5.4 12-12s-5.4-12-12-12-12 5.4-12 12 5.4 12 12 12m29-2c-5.5 0-10-4.5-10-10s4.5-10 10-10 10 4.5 10 10-4.4 10-10 10m0-22c-6.6 0-12 5.4-12 12s5.4 12 12 12 12-5.4 12-12-5.3-12-12-12M18.5 55c-5.5 0-10-4.5-10-10s4.5-10 10-10 10 4.5 10 10-4.5 10-10 10m0-22c-6.6 0-12 5.4-12 12s5.4 12 12 12 12-5.4 12-12-5.4-12-12-12m29 22c-5.5 0-10-4.5-10-10s4.5-10 10-10 10 4.5 10 10-4.4 10-10 10m0-22c-6.6 0-12 5.4-12 12s5.4 12 12 12 12-5.4 12-12-5.3-12-12-12M24.3 60.1a2.2 2.2 0 1 1 0 4.4 2.2 2.2 0 0 1 0-4.4m7.7 0a2.2 2.2 0 1 1 0 4.4 2.2 2.2 0 0 1 0-4.4m7.7 0a2.2 2.2 0 1 1 0 4.399 2.2 2.2 0 0 1 0-4.399" fill="#003764"/><path d="M18.5 50c-2.8 0-5-2.2-5-5s2.2-5 5-5 5 2.2 5 5-2.3 5-5 5m0-12c-3.9 0-7 3.1-7 7s3.1 7 7 7 7-3.1 7-7-3.2-7-7-7" fill="#003764"/></g></svg>