<svg width="40" height="44" xmlns="http://www.w3.org/2000/svg" xmlns:xlink="http://www.w3.org/1999/xlink"><g fill="none" fill-rule="evenodd"><style>.a{fill:#003764}</style><defs><path id="a" d="M0 0h40v44H0z"/></defs><mask id="b" fill="#fff"><use xlink:href="#a"/></mask><path d="M39.024 9.283H.976V8.047h11.02a3.223 3.223 0 0 0 3.21-3.226V.978h23.33c.27 0 .488.219.488.489v7.816zm0 33.25a.49.49 0 0 1-.488.49H1.463a.489.489 0 0 1-.487-.49V10.261h38.048v32.272zM.976 1.467c0-.27.218-.489.487-.489H14.23v3.843a2.244 2.244 0 0 1-2.235 2.248H.976V1.467zM38.536 0H1.463C.656 0 0 .658 0 1.467v41.066C0 43.342.656 44 1.463 44h37.073c.807 0 1.464-.658 1.464-1.467V1.467C40 .658 39.343 0 38.536 0z" class="a" mask="url(#b)"/><path d="M33.928 6.753a1.722 1.722 0 0 1-1.715-1.726c0-.951.768-1.725 1.715-1.725.946 0 1.715.774 1.715 1.725 0 .952-.77 1.726-1.715 1.726m0-4.43a2.7 2.7 0 0 0-2.691 2.704 2.7 2.7 0 0 0 2.69 2.704 2.701 2.701 0 0 0 2.691-2.704 2.7 2.7 0 0 0-2.69-2.703M20.036 14.373a11.91 11.91 0 0 1 9.06 4.184 12.04 12.04 0 0 1 2.881 7.82c0 6.62-5.357 12.005-11.94 12.005-6.585 0-11.942-5.385-11.942-12.005 0-6.619 5.357-12.004 11.941-12.004m0 24.986c7.123 0 12.917-5.823 12.917-12.982 0-3.103-1.106-6.106-3.116-8.456a12.884 12.884 0 0 0-9.8-4.526c-7.123 0-12.918 5.824-12.918 12.982 0 7.16 5.795 12.982 12.917 12.982M21.88 2.324h-3.687a.488.488 0 0 0 0 .978h3.688a.488.488 0 0 0 0-.978m-.001 2.214h-3.687a.488.488 0 0 0 0 .978h3.688a.488.488 0 0 0 0-.978m-.001 2.215h-3.687a.488.488 0 0 0 0 .978h3.688a.488.488 0 0 0 0-.978m6.451-4.429h-3.688a.488.488 0 0 0 0 .978h3.688a.488.488 0 0 0 0-.978m0 2.214h-3.688a.488.488 0 0 0 0 .978h3.688a.488.488 0 0 0 0-.978m0 2.215h-3.688a.488.488 0 0 0 0 .978h3.688a.488.488 0 0 0 0-.978M5.456 3.364h4.537v.208a1.11 1.11 0 0 1-1.105 1.112H6.56A1.11 1.11 0 0 1 5.456 3.57v-.208zm-.976.208c0 1.151.934 2.09 2.08 2.09h2.328a2.088 2.088 0 0 0 2.08-2.09V2.385H4.48v1.187z" class="a"/><path d="M20.13 18.157c1.836 0 3.565.593 5.063 1.758l-.022.024a11.05 11.05 0 0 0-.96 1.22 6.556 6.556 0 0 0-3.997-1.378c-3.62 0-6.564 2.96-6.564 6.597 0 3.637 2.944 6.596 6.564 6.596a6.49 6.49 0 0 0 3.952-1.328c.017-.012.026-.032.04-.046.3.423.63.826 1.007 1.197 0 .002-.025.056-.16.147-1.61 1.1-3.265 1.655-4.922 1.655-4.51 0-8.177-3.687-8.177-8.221 0-4.534 3.668-8.221 8.177-8.221m2.424 8.22c0 1.576.4 3.093 1.147 4.428-.043.018-.086.032-.125.061a5.518 5.518 0 0 1-3.363 1.13c-3.082 0-5.59-2.52-5.59-5.618 0-3.099 2.508-5.62 5.59-5.62 1.267 0 2.504.44 3.49 1.235-.65 1.184-1.15 2.647-1.15 4.385m-2.423 9.2c1.856 0 3.697-.614 5.472-1.826.46-.315.57-.656.58-.888a.93.93 0 0 0-.303-.72 8.192 8.192 0 0 1-2.35-5.766c0-2.637 1.285-4.598 2.362-5.78.305-.333.333-.64.304-.838a.858.858 0 0 0-.36-.577 9.029 9.029 0 0 0-5.705-2.005c-5.047 0-9.153 4.127-9.153 9.2 0 5.073 4.106 9.2 9.153 9.2" class="a"/></g></svg>