<svg width="66" height="72" xmlns="http://www.w3.org/2000/svg"><g fill="#003764" fill-rule="evenodd"><path d="M2 70h62V17.1H2V70zm0-56.5h17.9c3 0 5.5-2.4 5.5-5.5V2H64v13.1H2v-1.6zM2 2h21.3v6c0 1.9-1.6 3.5-3.5 3.5H2V2zm62-2H2C.9 0 0 .9 0 2v68c0 1.1.9 2 2 2h62c1.1 0 2-.9 2-2V2c0-1.1-.9-2-2-2z"/><path d="M33.1 62.5c-10.7 0-19.4-8.7-19.4-19.3 0-10.6 8.7-19.3 19.4-19.3 5.7 0 11 2.5 14.7 6.7 3 3.5 4.7 8 4.7 12.6-.1 10.6-8.8 19.3-19.4 19.3m16.2-33.3c-4.1-4.7-10-7.4-16.2-7.4-11.8 0-21.4 9.6-21.4 21.3 0 11.7 9.6 21.3 21.4 21.3 11.8 0 21.4-9.6 21.4-21.3-.1-5.1-1.9-10-5.2-13.9M30 5.8h6v-2h-6zm0 3.6h6v-2h-6zm0 3.6h6v-2h-6zM9.3 5.9h7V6c0 .9-.7 1.6-1.6 1.6H11c-.9 0-1.6-.7-1.7-1.7zm-2 .1C7.3 8 9 9.6 11 9.6h3.8c2 0 3.6-1.6 3.6-3.6V3.9h-11L7.3 6z"/><path d="M38.9 50.5l-.2-.2a8.78 8.78 0 0 1-5.4 1.8c-4.9 0-9-4-9-8.9s4-8.9 9-8.9c2 0 3.9.7 5.5 1.9-1.2 2.2-1.8 4.6-1.8 7.1 0 2.4.7 5 1.9 7.2m1-16.2c-1.9-1.4-4.2-2.2-6.5-2.2-6 0-11 4.9-11 10.9s4.9 10.9 11 10.9c2.4 0 4.6-.7 6.5-2.1.4.6.9 1.1 1.4 1.7-2.6 1.8-5.3 2.7-8 2.7-7.3 0-13.2-5.9-13.2-13.2 0-7.3 5.8-13 13.1-13 2.9 0 5.7.9 8 2.7-.5.5-.9 1.1-1.3 1.6m3.5-2c-.1-.5-.4-.9-.7-1.1-2.7-2.1-6-3.3-9.4-3.3C24.8 28 18 34.8 18 43.1c0 8.3 6.8 15.2 15.2 15.2 3.1 0 6.1-1 9.1-3 .8-.6 1-1.2 1-1.6 0-.7-.4-1.2-.6-1.4-2.4-2.5-3.8-5.7-3.8-9.2 0-4.2 2.1-7.4 3.8-9.3.7-.5.7-1.1.7-1.5"/></g></svg>