<svg width="213" height="60" xmlns="http://www.w3.org/2000/svg"><g fill="none" fill-rule="evenodd"><path d="M54.322 21.856h12.834v2.806H62.28v12.374h-3.105V24.662h-4.853v-2.806zm15.408 0h10.212v2.806h-7.107v3.082h5.221v2.645h-5.22v3.84h7.382v2.807H69.73v-15.18zm23.527 0h3.105v15.18h-3.105V30.48h-6.716v6.555h-3.105v-15.18h3.105v5.819h6.716v-5.82zm16.926 9.039v-9.04h3.105v15.457h-1.035l-8.786-9.384v9.108h-3.105V21.58h1.012l8.81 9.315zm7.105-9.04h3.105v15.18h-3.105v-15.18zm13.89 7.154l6.578 8.027h-3.749l-6.509-7.912v7.912h-3.105v-15.18h3.105v7.06l5.796-7.06h3.703l-5.819 7.153zm22.286 8.027h-3.335l-.851-1.978h-6.21l-.852 1.978h-3.335l6.786-15.456h1.035l6.762 15.456zm-9.292-4.531h4.001l-2-5.106-2.001 5.106zM169.1 21.58c2.875 0 5.336 1.403 6.693 3.772l-2.346 1.656c-1.081-1.702-2.53-2.553-4.347-2.553-1.426 0-2.6.46-3.52 1.403-.92.943-1.38 2.139-1.38 3.61 0 1.45.46 2.646 1.38 3.589.92.92 2.094 1.38 3.52 1.38 1.817 0 3.266-.851 4.347-2.553l2.346 1.656c-1.311 2.369-3.795 3.772-6.716 3.772-2.277 0-4.186-.76-5.75-2.254-1.541-1.518-2.323-3.381-2.323-5.612 0-2.231.782-4.094 2.346-5.59 1.564-1.517 3.473-2.276 5.75-2.276zm9.865.276h3.105v15.18h-3.105v-15.18zm5.679 0h12.834v2.806h-4.876v12.374h-3.105V24.662h-4.853v-2.806zm24.194 0h3.427l-5.221 9.2v5.98h-3.105v-5.957l-5.244-9.223h3.45l3.335 6.026 3.358-6.026z" fill="#003764"/><path fill="#03B5C9" d="M0 22.5h14v-15H0z"/><path fill="#007CE2" d="M0 60h14V32.143H0z"/><path fill="#095BA6" d="M14 37.5h14v-15H14z"/><path fill="#00AAF3" d="M28 45h14V15H28z"/><path fill="#095BA6" d="M14 60h14V45H14z"/><path fill="#003764" d="M28 60h14V45H28z"/><path fill="#10DDCC" d="M14 15h14V0H14z"/></g></svg>