<svg width="77" height="60" xmlns="http://www.w3.org/2000/svg" xmlns:xlink="http://www.w3.org/1999/xlink"><defs><path id="a" d="M0 0h77v60H0z"/></defs><g fill="none" fill-rule="evenodd"><path d="M52.28 52.8a1.186 1.186 0 0 1-1.527-.688 1.181 1.181 0 0 1 .667-1.532 1.187 1.187 0 0 1 1.527.687 1.18 1.18 0 0 1-.667 1.532m-1.72-4.437c-1.815.7-2.714 2.762-2.003 4.596.712 1.835 2.768 2.76 4.583 2.06 1.815-.7 2.714-2.762 2.002-4.597-.71-1.834-2.767-2.758-4.582-2.059" fill="#003764"/><mask id="b" fill="#fff"><use xlink:href="#a"/></mask><path d="M54 57.236c-3.026 1.166-6.453-.373-7.638-3.432-1.186-3.058.312-6.495 3.338-7.66 3.026-1.166 6.453.374 7.638 3.432 1.186 3.057-.311 6.494-3.338 7.66zM40.71 39.223l6.475 5.572a8.173 8.173 0 0 0-2.927 3.583l-3.549-9.155zM28.921 13.33l3.729 3.033a1.173 1.173 0 0 0 1.657-.172l3.678-4.605c.196-.243.287-.556.25-.87a1.208 1.208 0 0 0-.436-.8l-3.658-2.973 3.339-4.085 14.933 12.425-3.967 4.852a1.17 1.17 0 0 0-.154.16l-1.024 1.283-7.056 8.631L25.28 17.786l3.642-4.456zm6.486-2.32l-2.206 2.761-2.764-2.247 1.718-2.15.495-.608 2.757 2.243zm16.755 13.952l-2.206 2.762-2.764-2.248 1.771-2.216.442-.541 2.757 2.243zm4.81 19.193L42.04 31.731l3.638-4.45 3.73 3.034a1.177 1.177 0 0 0 1.657-.171l3.677-4.605a1.196 1.196 0 0 0-.185-1.67l-3.658-2.975 3.343-4.09 14.935 12.423-12.203 14.928zM77 30.371l-1.81-1.536-15.983 19.161a8.36 8.36 0 0 0-1.023-1.571l13.561-16.59a1.197 1.197 0 0 0-.168-1.671l-16.68-13.876a1.058 1.058 0 0 0-.076-.07L38.06.275a1.17 1.17 0 0 0-1.66.152l-4.692 5.741a1.18 1.18 0 0 0-.171.175l-1.24 1.552-7.589 9.284a1.197 1.197 0 0 0 .168 1.672L39.58 32.747c.017.017.033.033.052.048l12.755 10.61a8.103 8.103 0 0 0-2.864.293L14.312 13.4a5.883 5.883 0 0 0-5.948-1.055L0 15.568l.86 2.218 8.362-3.221a3.528 3.528 0 0 1 3.566.635l24.136 20.766 7.24 18.68c.002 0 .002.002.003.004 1.659 4.28 6.456 6.436 10.693 4.805 3.59-1.384 5.643-5.052 5.175-8.746L77 30.371z" fill="#003764" mask="url(#b)"/></g></svg>