<svg width="76" height="54" xmlns="http://www.w3.org/2000/svg" xmlns:xlink="http://www.w3.org/1999/xlink"><defs><path id="a" d="M0 0h27.867v33.907H0z"/><path id="c" d="M0 54h76V0H0z"/></defs><g fill="none" fill-rule="evenodd"><path d="M17.734 41.442c-2.795 0-5.067 2.253-5.067 5.023 0 2.77 2.272 5.023 5.067 5.023 2.794 0 5.066-2.253 5.066-5.023 0-2.77-2.272-5.023-5.066-5.023m0 12.558c-4.192 0-7.6-3.38-7.6-7.535 0-4.156 3.408-7.535 7.6-7.535 4.191 0 7.6 3.38 7.6 7.535S21.925 54 17.734 54M60.8 41.442c-2.794 0-5.066 2.253-5.066 5.023 0 2.77 2.272 5.023 5.066 5.023 2.795 0 5.067-2.253 5.067-5.023 0-2.77-2.272-5.023-5.067-5.023M60.8 54c-4.191 0-7.6-3.38-7.6-7.535 0-4.156 3.409-7.535 7.6-7.535 4.192 0 7.6 3.38 7.6 7.535S64.992 54 60.8 54" fill="#003764"/><g transform="translate(48.133 13.814)"><mask id="b" fill="#fff"><use xlink:href="#a"/></mask><path d="M26.6 33.907H19v-2.512h6.334V19.206L14.509 2.511H2.534v28.884h3.8v2.512H1.267A1.26 1.26 0 0 1 0 32.65V1.256A1.26 1.26 0 0 1 1.267 0H15.2c.43 0 .832.217 1.066.576l11.4 17.582c.131.202.2.44.2.679v13.814a1.26 1.26 0 0 1-1.266 1.256" fill="#003764" mask="url(#b)"/></g><path d="M73.467 32.65h-19a1.26 1.26 0 0 1-1.267-1.255V20.093a1.26 1.26 0 0 1 1.267-1.256h11.4v2.512H55.734v8.79h17.733v2.512zM49.4 47.72H24.067v-2.51h24.067V7.534h-45.6v37.674H11.4v2.512H1.267A1.26 1.26 0 0 1 0 46.465V6.279c0-.693.568-1.256 1.267-1.256H49.4c.7 0 1.267.563 1.267 1.256v40.186A1.26 1.26 0 0 1 49.4 47.72" fill="#003764"/><mask id="d" fill="#fff"><use xlink:href="#c"/></mask><path fill="#003764" mask="url(#d)" d="M1.267 42.698h7.6v-2.512h-7.6zm25.333 0h21.533v-2.512H26.6zm43.067 0h5.066v-2.512h-5.066zm-64.6-30.14H49.4v-2.511H5.067zm11.4 35.162H19v-2.51h-2.533zm43.066 0h2.534v-2.51h-2.534zM5.067 2.512H22.8V0H5.067zM0 2.512h2.533V0H0z"/></g></svg>