<svg width="65" height="54" xmlns="http://www.w3.org/2000/svg"><path d="M58.584 42.773c-6.506 3.19-17.399 8.527-22.02 8.527-4.928 0-17.863-5.75-22.43-7.963-.005-.004-.011-.003-.016-.005l1.593-11.125c.985-.309 4.002-1.157 7.31-1.157 2 0 3.542.743 5.495 1.681 1.754.844 3.743 1.8 6.422 2.343 5.885 1.189 8.396 2.41 8.396 4.076 0 .33-.101.533-.359.724-.857.64-4.22 1.722-16.861-2.019a1.36 1.36 0 0 0-1.684.911 1.353 1.353 0 0 0 .915 1.68c6.236 1.842 11.006 2.76 14.386 2.76 2.204 0 3.817-.39 4.863-1.168.092-.068.157-.15.24-.223.083-.01.167.001.251-.024 2.396-.734 9.18-2.641 11.79-2.641 2.208 0 4.531.67 5.218 1.925-.947.443-2.143 1.03-3.51 1.698zM9.839 45.9h-7.13V27.298l9.408 1.875a1.35 1.35 0 0 1 1.076 1.515l-2.015 14.054a1.358 1.358 0 0 1-1.34 1.158zM29.388 2.7h8.149l-2.03 8.1H25.233l4.154-8.1zm32.045 8.1H51.16l-2.03-8.1h8.149l4.154 8.1zm-23.136 0l2.03-8.1h6.013l2.03 8.1H38.297zm-.38 8.1h10.834v-5.4H37.917v5.4zm8.054 19.814c-.368-3.873-5.346-5.246-10.492-6.288-2.349-.475-4.097-1.314-5.787-2.126-1.703-.82-3.35-1.572-5.316-1.83V13.5h10.833v6.75c0 .746.604 1.35 1.354 1.35h13.542c.747 0 1.354-.604 1.354-1.35V13.5h10.833v24.22c-1.4-.795-3.247-1.27-5.416-1.27-2.645 0-8.126 1.469-10.905 2.264zm19.02-26.61c-.004-.09-.032-.176-.054-.265-.022-.089-.034-.177-.072-.258-.008-.014-.005-.031-.012-.045L59.312.736a1.353 1.353 0 0 0-1.206-.737H28.56c-.51 0-.975.284-1.206.737l-5.54 10.8c-.008.014-.006.03-.013.045-.038.08-.052.17-.072.258-.022.089-.05.174-.054.264 0 .017-.009.03-.009.047v16.248a29.578 29.578 0 0 0-5.918.986 4.05 4.05 0 0 0-3.1-2.858l-11.03-2.2A1.35 1.35 0 0 0 0 25.65v21.6c0 .748.605 1.35 1.355 1.35h8.484c1.672 0 3.096-1.06 3.708-2.55C16.58 47.491 30.602 54 36.563 54c5.252 0 16.062-5.3 23.216-8.803 1.867-.916 3.41-1.672 4.412-2.11.492-.216.81-.7.81-1.237v-29.7c0-.017-.01-.03-.01-.047z" fill="#003764" fill-rule="evenodd"/></svg>