<svg width="120" height="24" xmlns="http://www.w3.org/2000/svg"><g fill="#DEE4E8" fill-rule="evenodd"><path d="M38.561 18.47h-3.746v-4.219h3.905a2.141 2.141 0 0 1 2.174 2.103c0 .97-.666 2.117-2.333 2.117zM34.815 6.477h3.968c.89 0 1.556.97 1.556 1.94 0 1.018-.73 1.923-1.952 1.923h-3.572V6.476zm9.047 5.237c.842-.791 1.794-2.1 1.794-3.765 0-2.895-1.683-5.966-6.095-5.966h-9.444v20.691h10.666c3.301 0 5.651-3.07 5.651-5.803 0-2.328-1.175-4.155-2.572-5.157zm13.127 6.579c-2.682 0-4.682-2.845-4.682-6.24 0-3.298 2.619-5.69 4.682-5.69 2.079 0 4.698 2.392 4.698 5.69 0 3.395-2.015 6.24-4.698 6.24m0-16.715c-4.571 0-9.38 3.766-9.38 10.637 0 6.305 4.127 10.799 9.38 10.799 5.253 0 9.396-4.494 9.396-10.8 0-6.87-4.81-10.636-9.396-10.636m21.459 8.6c-3.333-.518-5.301-.97-5.301-2.507 0-1.147.603-1.875 2.11-1.875 1.46 0 3.302.793 4.477 1.65l2.745-3.298c-1.793-1.6-5.475-2.845-6.824-2.845-4.746 0-7.714 2.894-7.714 6.644 0 3.88 2.603 5.673 5.206 6.078 2.904.454 4.968 1.083 4.968 2.57 0 1.18-1.223 1.812-2.572 1.812-2.174 0-3.745-1.084-5.08-2.506-1.395 1.422-3.125 3.297-3.125 3.297 1.666 2.005 3.84 3.767 7.809 3.767 5.364 0 8.22-3.88 8.22-6.66 0-3.476-2.348-5.739-4.92-6.127m15.904-3.815c1.556 0 2.301.857 3.635 2.392l3.857-2.683c-1.905-2.894-4.238-4.656-7.762-4.656-5.015 0-9.206 4.72-9.206 10.848 0 6.142 4.191 10.863 9.206 10.863 3.524 0 5.857-1.763 7.762-4.656l-3.857-2.684c-1.334 1.536-2.079 2.393-3.635 2.393-2.571 0-4.619-2.215-4.619-5.916 0-3.687 2.048-5.901 4.619-5.901m20.681 2.845h-6.142V1.982h-4.984v20.692h4.984V14.43h6.142v8.244H120V1.982h-4.968zM18.183 20.597a10.401 10.401 0 0 1-6.392 2.188 10.43 10.43 0 0 1-6.446-2.225 10.895 10.895 0 0 1-4.171-8.569c0-3.477 1.643-6.584 4.171-8.552a10.332 10.332 0 0 1 6.446-2.244c2.401 0 4.604.827 6.392 2.19a10.866 10.866 0 0 1 4.207 8.606c0 3.494-1.643 6.62-4.207 8.606m0-18.685A11.597 11.597 0 0 0 11.791 0C9.408 0 7.204.717 5.345 1.95A12.07 12.07 0 0 0 0 11.991a12.07 12.07 0 0 0 5.345 10.041C7.204 23.264 9.408 24 11.791 24c2.347 0 4.55-.716 6.392-1.93a12.074 12.074 0 0 0 5.399-10.078c0-4.212-2.149-7.927-5.399-10.079"/><path d="M17.045 17.508l.018-10.998c.434.424.813.902 1.12 1.417a7.835 7.835 0 0 1 1.137 4.064c0 1.416-.415 2.832-1.137 4.046a8.127 8.127 0 0 1-1.138 1.47zM15.98 14.29H7.53V9.637h8.452v4.653zM5.344 16.037a7.82 7.82 0 0 1-1.137-4.046 7.835 7.835 0 0 1 2.24-5.481l.035 10.998a8.172 8.172 0 0 1-1.138-1.471zm12.84-9.967a8.288 8.288 0 0 0-2.204-1.785v4.157H7.53V4.285A8.24 8.24 0 0 0 5.344 6.05a9.016 9.016 0 0 0-2.257 5.94c0 2.207.831 4.34 2.257 5.958a7.95 7.95 0 0 0 2.185 1.785v-4.286h8.452v4.286a8.288 8.288 0 0 0 2.202-1.785 9.063 9.063 0 0 0 2.257-5.958 8.93 8.93 0 0 0-2.257-5.921z"/></g></svg>