<svg width="64" height="70" xmlns="http://www.w3.org/2000/svg" xmlns:xlink="http://www.w3.org/1999/xlink"><defs><path id="a" d="M0 70h64V0H0z"/></defs><g fill="none" fill-rule="evenodd"><path d="M61 69H3a2 2 0 0 1-2-2V3a2 2 0 0 1 2-2h58a2 2 0 0 1 2 2v64a2 2 0 0 1-2 2z" stroke="#003764" stroke-width="2"/><path stroke="#003764" stroke-width="2" d="M24.435 17.673H6.86V8.402h17.575m15.329 0h17.214v9.272H39.763"/><path d="M41.062 13.038a8.964 8.964 0 0 0-8.965-8.964 8.964 8.964 0 0 0-8.964 8.964 8.964 8.964 0 0 0 8.964 8.964 8.964 8.964 0 0 0 8.965-8.964z" stroke="#003764" stroke-width="2"/><path d="M37.123 13.038a5.026 5.026 0 1 0-10.051 0 5.026 5.026 0 0 0 10.051 0z" stroke="#003764" stroke-width="2"/><mask id="b" fill="#fff"><use xlink:href="#a"/></mask><path stroke="#003764" stroke-width="2" mask="url(#b)" d="M6.859 61.666h50.119V25.339H6.859z"/><path stroke="#003764" stroke-width="2" mask="url(#b)" d="M23.839 45.92h16.516V25.34H23.839zM23.84 39h15.506M26.131 50.574h3.933V45.92h-3.933zm8 0h3.933V45.92h-3.933z"/></g></svg>