<svg width="64" height="70" xmlns="http://www.w3.org/2000/svg" xmlns:xlink="http://www.w3.org/1999/xlink"><defs><path id="a" d="M0 70h64V0H0z"/></defs><g fill="none" fill-rule="evenodd"><path d="M61 69H3a2 2 0 0 1-2-2V3a2 2 0 0 1 2-2h58a2 2 0 0 1 2 2v64a2 2 0 0 1-2 2zM1 17.81h62m0 7.036H1" stroke="#003764" stroke-width="2"/><path d="M33.5 21.328a1.5 1.5 0 1 0-3 0 1.5 1.5 0 0 0 3 0m-4.667 0a1.5 1.5 0 1 0-2.999-.001 1.5 1.5 0 0 0 2.999.001m-4.668 0a1.5 1.5 0 1 0-2.998-.001 1.5 1.5 0 0 0 2.998.001m-4.667 0a1.5 1.5 0 1 0-3 0 1.5 1.5 0 0 0 3 0" fill="#003764"/><mask id="b" fill="#fff"><use xlink:href="#a"/></mask><path fill="#003764" mask="url(#b)" d="M37.001 22.328h23v-2h-23zm-33.128 0h5v-2h-5z"/><path d="M6.847 17.81v-3.972c0-4.209 3.443-7.652 7.652-7.652h35.146c4.209 0 7.652 3.443 7.652 7.652v3.972" stroke="#003764" stroke-width="2" mask="url(#b)"/><path d="M25.972 17.81l3.693-7.646m1.321 7.646l3.693-7.646M36 17.81l3.693-7.646m1.321 7.646l3.693-7.646" stroke="#003764" stroke-width="2" stroke-linecap="round" mask="url(#b)"/></g></svg>