<svg width="64" height="72" xmlns="http://www.w3.org/2000/svg"><g fill="none" fill-rule="evenodd"><path d="M46.563 1L2.998 4.75a2 2 0 0 0-2 2V71M63 71V9.75a2 2 0 0 0-2-2H50.095" stroke="#003764" stroke-width="2" stroke-linecap="round"/><path d="M45.012 71V2.551a1.55 1.55 0 0 1 1.55-1.55h1.983c.856 0 1.55.693 1.55 1.55v68.45m-17.396-1.687v-19.05c0-.928.759-1.687 1.686-1.687h.409a1.69 1.69 0 0 1 1.685 1.686v19.051A1.69 1.69 0 0 1 34.794 71h-.41a1.691 1.691 0 0 1-1.685-1.686z" stroke="#003764" stroke-width="2" stroke-linecap="round"/><path d="M25.634 36.979l-.614-2.434 2.077.542c.383.1.777-.138.88-.53a.727.727 0 0 0-.507-.893l-2.86-.747-1.105-4.383 4.278 1.162.711 2.93a.72.72 0 0 0 .183.333.704.704 0 0 0 .687.19.746.746 0 0 0 .524-.896l-.516-2.126 2.378.645a.726.726 0 0 0 .884-.522.725.725 0 0 0-.498-.897l-2.377-.645 1.523-1.573a.744.744 0 0 0 .002-1.038.707.707 0 0 0-1.017.012l-2.097 2.167-4.278-1.16 3.173-3.222 2.845.802a.727.727 0 0 0 .89-.513.726.726 0 0 0-.49-.903l-2.067-.581 1.764-1.79a.745.745 0 0 0 .011-1.038.707.707 0 0 0-1.016.003l-1.764 1.79-.553-2.117a.707.707 0 0 0-.88-.508.746.746 0 0 0-.508.906l.763 2.915-3.174 3.22-1.105-4.381 2.136-2.13a.746.746 0 0 0 .02-1.037l-.005-.005a.708.708 0 0 0-1.011-.002l-1.55 1.546-.614-2.435a.706.706 0 0 0-.873-.515.747.747 0 0 0-.518.9l.615 2.435-2.078-.542a.725.725 0 0 0-.88.529.734.734 0 0 0 .181.703.701.701 0 0 0 .326.19l2.86.748 1.105 4.381-4.278-1.16-.71-2.93a.706.706 0 0 0-.87-.524.746.746 0 0 0-.525.896l.516 2.126-2.378-.645a.727.727 0 0 0-.884.522.74.74 0 0 0 .18.71.699.699 0 0 0 .318.187l2.377.646-1.523 1.573a.745.745 0 0 0-.006 1.033l.004.005a.708.708 0 0 0 1.017-.013l2.097-2.167 4.28 1.16-3.174 3.222-2.847-.802a.726.726 0 0 0-.888.514.74.74 0 0 0 .176.716.7.7 0 0 0 .314.186l2.065.582-1.762 1.79a.745.745 0 0 0-.011 1.038.707.707 0 0 0 1.015-.004l1.765-1.789.553 2.116a.702.702 0 0 0 .879.508.745.745 0 0 0 .509-.906l-.763-2.915 3.173-3.22 1.105 4.38-2.136 2.13a.745.745 0 0 0-.015 1.043.707.707 0 0 0 1.01.001l1.55-1.546.615 2.436c.033.129.096.24.182.327a.7.7 0 0 0 .693.188.746.746 0 0 0 .516-.9" fill="#003764"/><path d="M38.563 56.173h-2.084v-3.25h2.084c.762 0 1.381.728 1.381 1.625s-.619 1.625-1.382 1.625zm0 10.813h-2.084v-3.25h2.084c.762 0 1.381.728 1.381 1.625 0 .896-.619 1.624-1.382 1.624z" stroke="#003764" stroke-width="2" stroke-linecap="round"/></g></svg>