<svg width="120" height="32" xmlns="http://www.w3.org/2000/svg"><g fill="#DEE4E8" fill-rule="evenodd"><path d="M38.761 24.072h3.101V9.62h-3.101zM15.85 4.315c.02 0 .02.02.041.02 1.19 0 2.155-.99 2.155-2.167A2.161 2.161 0 0 0 15.891 0h-.042c-1.17.02-2.114.99-2.114 2.167 0 1.177.944 2.126 2.114 2.147M51.983 9.62H44.96v14.452h3.1V12.45h3.572c1.828 0 3.08.908 3.038 3.034v8.59h3.102v-9.477c0-3.159-2.629-4.976-5.79-4.976M15.85 7.7c-.945 0-1.705.764-1.705 1.714v14.844c0 .928.76 1.693 1.704 1.693.924 0 1.704-.765 1.704-1.693V9.414c0-.95-.78-1.714-1.704-1.714m69.701 7.928h-6.837v-.04c0-2.127 1.54-3.84 3.408-3.84 1.889 0 3.429 1.713 3.429 3.84v.04zM82.12 9.25c-3.735.165-6.137 2.663-6.507 7.432-.246 3.634 1.705 7.432 6.508 7.762.103.022.205.022.329.022 2.176.02 3.655-.166 5.09-.702l.042-2.726c-1.888.764-3.86 1.012-5.461.702-1.91-.35-3.263-1.527-3.202-3.55h9.136c1.19-5.369-1.622-8.919-5.934-8.94zm22.154 14.822h3.101V9.62h-3.101zm-7.514-8.361c-5.194-.888-3.881-5.306 4.023-3.24V9.908c-2.196-.7-5.727-.887-7.616 0-3.901 1.921-3.613 7.928 2.854 8.59 4.209.515 3.53 5.387-5.338 2.518v2.828c2.792.785 6.282 1.115 8.705 0 1.6-.99 2.217-2.333 2.237-3.655.062-2.31-1.458-3.963-4.865-4.479m19.668-6.09h-6.673v2.85h3.572v11.602h3.1V12.47H120V9.62zM67.216 21.223a6.909 6.909 0 0 1-1.56.166h-1.642v-9.063h1.6c.596 0 1.13.06 1.602.185 2.115.537 3.162 2.23 3.183 4.5.02 1.487-.596 3.613-3.183 4.212m0-11.5a9.95 9.95 0 0 0-1.396-.081h-4.866v14.45h4.928c.473 0 .924-.02 1.334-.082 5.112-.557 6.263-4.335 6.24-6.916-.02-3.984-2.072-6.875-6.24-7.37"/><path d="M23.96 2.56c-1.562-.475-2.69 1.26-1.767 2.271 4.107 2.188 6.878 6.482 6.878 11.375 0 7.144-5.872 12.966-13.098 12.966h-.124C8.684 29.11 2.874 23.31 2.874 16.206c0-4.81 2.69-9.042 6.672-11.272.842-1.177-.123-2.58-1.457-2.436C3.264 5.223 0 10.343 0 16.206 0 24.856 7.104 31.937 15.85 32h.123c8.787 0 15.972-7.103 15.972-15.794 0-5.822-3.223-10.92-7.986-13.646"/></g></svg>