<svg width="66" height="54" xmlns="http://www.w3.org/2000/svg" xmlns:xlink="http://www.w3.org/1999/xlink"><defs><path id="a" d="M0 54h66V0H0z"/></defs><g fill="none" fill-rule="evenodd"><path d="M63 53H3a2 2 0 0 1-2-2V3a2 2 0 0 1 2-2h60a2 2 0 0 1 2 2v48a2 2 0 0 1-2 2z" stroke="#003764" stroke-width="2"/><path d="M59.454 31.761c0-2.585-2.08-4.68-4.646-4.68-2.565 0-4.645 2.095-4.645 4.68 0 2.584 2.08 4.68 4.645 4.68 2.566 0 4.646-2.096 4.646-4.68z" stroke="#003764" stroke-width="2"/><mask id="b" fill="#fff"><use xlink:href="#a"/></mask><path stroke="#003764" stroke-width="2" mask="url(#b)" d="M7.86 46.123h36.446V6.993H7.86z"/><path stroke="#003764" stroke-width="2" mask="url(#b)" d="M14.608 35.84H37.17V17.48H14.608z"/><path fill="#003764" mask="url(#b)" d="M48.184 13.624h3.098v-3.12h-3.098zm5.075 0h3.098v-3.12h-3.098zm5.076 0h3.097v-3.12h-3.097zm-10.151 4.679h3.098v-3.12h-3.098zm5.075 0h3.098v-3.12h-3.098zm5.076 0h3.097v-3.12h-3.097zm-10.151 4.94h3.098v-3.12h-3.098zm5.075 0h3.098v-3.12h-3.098zm5.076 0h3.097v-3.12h-3.097zM48.184 8.2h13.248V6.042H48.184zm0 38.659h13.248v-6.586H48.184v6.586zm2-1.999h9.248v-2.586h-9.248v2.586z"/></g></svg>