<svg width="120" height="30" xmlns="http://www.w3.org/2000/svg"><g fill="#DEE4E8" fill-rule="evenodd"><path d="M105.144 12.068c-.888 0-1.607.677-1.607 1.579v2.03h3.157v-2.03c0-.902-.718-1.58-1.55-1.58m-38.356.001c-.83 0-1.552.677-1.552 1.579v2.03h3.159v-2.03c0-.902-.719-1.58-1.607-1.58"/><path d="M115.84 18.157h-12.304v1.468c0 .846.5 1.634 1.275 2.029.111.056.221.113.333.113.054.056.11.056.221.113 1.996.62 4.157-.564 4.767-2.595h5.598c-.72 1.974-1.994 3.328-3.825 4.174-2.272 1.072-4.489 1.579-6.76 1.579-2.052.056-4.103-.338-6.154-1.128-1.884-.733-3.214-2.087-4.046-4.003-1.552-3.724.166-8.008 3.825-9.531 2.106-.958 4.212-1.353 6.374-1.353 2.272.056 4.544.62 6.817 1.748 2.772 1.41 4.268 4.285 3.88 7.386zM93.504 24.36h-15.02v-3.213H80.7V8.176h-2.216V4.963h12.748v16.183h2.272v3.214zm-16.018-6.203h-12.25v1.468c0 .846.5 1.634 1.275 2.03.111.056.222.111.277.111.111.058.166.058.278.114 1.995.62 4.101-.564 4.711-2.595h5.598c-.665 1.974-1.996 3.328-3.768 4.174-2.274 1.072-4.546 1.579-6.819 1.579-1.995.056-4.046-.338-6.096-1.128-1.885-.733-3.27-2.087-4.046-4.003-1.553-3.724.11-8.008 3.768-9.531 2.107-.958 4.268-1.353 6.374-1.353 2.328.056 4.601.62 6.82 1.748 2.77 1.41 4.266 4.285 3.878 7.386zM55.15 24.36H40.627v-3.213h2.217V12.97h-2.217V9.755h12.305v11.391h2.217v3.214zM38.576 8.177H36.36v12.97h2.216v3.213H24v-3.213h2.273v-8.402L17.958 24.36 9.644 12.745v8.402h2.272v3.213H3.88v-3.213h2.217V8.176H3.88V4.963h12.691l5.433 7.555 5.376-7.556h11.196v3.215zm11.085-4.003l1.442 2.818-4.6 2.426-1.44-2.876 4.598-2.369zM.001 30h119.997V0H0v30z"/></g></svg>