<svg width="66" height="72" xmlns="http://www.w3.org/2000/svg"><g fill="none" fill-rule="evenodd"><path d="M62.935 71H3.065A2.062 2.062 0 0 1 1 68.941V3.06C1 1.922 1.925 1 3.065 1h59.87C64.075 1 65 1.922 65 3.059V68.94A2.062 2.062 0 0 1 62.935 71z" stroke="#003764" stroke-width="2"/><path d="M1 21h64" stroke="#003764" stroke-width="2" stroke-linecap="square"/><path d="M9 29h49" stroke="#003764" stroke-width="2" stroke-linecap="round"/><path d="M56.968 63H10.032C9.462 63 9 62.542 9 61.977V37.023C9 36.458 9.461 36 10.032 36h46.936c.57 0 1.032.458 1.032 1.023v24.954c0 .565-.463 1.023-1.032 1.023zM37 11.5a4.5 4.5 0 1 0-9 0 4.5 4.5 0 0 0 9 0z" stroke="#003764" stroke-width="2" stroke-linecap="round" stroke-linejoin="round"/><path d="M9 12a2 2 0 1 0-4 0 2 2 0 0 0 4 0m8 0a2 2 0 1 0-4 0 2 2 0 0 0 4 0m7 0a2 2 0 1 0-4 0 2 2 0 0 0 4 0m22 0a2 2 0 1 0-4 0 2 2 0 0 0 4 0m7 0a2 2 0 1 0-4 0 2 2 0 0 0 4 0m8 0a2 2 0 1 0-4 0 2 2 0 0 0 4 0M40.182 46.488c.49-1.011.877-1.807 2.248-2.513a1.042 1.042 0 0 0 .45-1.411 1.066 1.066 0 0 0-1.428-.446c-1.996 1.028-2.651 2.378-3.177 3.464-.49 1.01-.877 1.806-2.249 2.514-1.368.705-2.203.567-3.357.377-.51-.086-1.072-.179-1.703-.179-.853 0-1.832.17-2.98.763-1.996 1.028-2.649 2.377-3.173 3.462-.489 1.009-.874 1.804-2.244 2.51a1.043 1.043 0 0 0-.45 1.41c.26.497.919.71 1.427.448 1.995-1.028 2.648-2.379 3.174-3.464.488-1.008.874-1.803 2.242-2.509 1.37-.704 2.202-.567 3.353-.376 1.203.197 2.692.443 4.688-.586 1.997-1.028 2.652-2.379 3.179-3.464m6.566 5.147a.938.938 0 0 0 .248-.723.967.967 0 0 0-.378-.677 1.142 1.142 0 0 0-1.522.12c-.898.988-2.042 1.82-3.398 2.472-3.326 1.598-5.982 1.186-7.41.967a1.175 1.175 0 0 0-.709.094 1.01 1.01 0 0 0-.53.587.915.915 0 0 0 .072.752c.157.28.45.476.786.526.68.104 1.604.247 2.755.247 2.059 0 4.088-.474 6.032-1.407 1.606-.772 2.97-1.766 4.054-2.958m-22.463-5.444c3.327-1.605 5.91-1.207 7.451-.968l.1.01c.404.032.8-.163 1.01-.49a.939.939 0 0 0 .122-.756.998.998 0 0 0-.49-.616 1.08 1.08 0 0 0-.438-.14c-.613-.091-1.534-.231-2.68-.231-1.638 0-3.741.287-6.073 1.413-1.596.771-2.953 1.763-4.034 2.95a.944.944 0 0 0-.132 1.108c.064.116.152.217.26.304.436.342 1.154.287 1.524-.118.894-.984 2.03-1.815 3.379-2.466" fill="#003764"/></g></svg>