<svg width="120" height="18" xmlns="http://www.w3.org/2000/svg"><path d="M65.802 8.359s-1.169-.74-1.891-1.026c0 0-2.234-1.061-2.677-1.566 0 0-.87-.84-.361-1.818 0 0 .213-.639 1.134-.639 0 0 1.197.069 1.197 1.077V5.81H67.5l-.007-2.096s.33-3.433-5.06-3.585c0 0-4.237-.286-5.452 2.054 0 0-.477.52-.477 2.338v1.312s-.049 1.516.707 2.491c0 0 .426.64 1.479 1.345 0 0 2.134 1.178 3.415 1.853 0 0 1.295.757 1.123 1.961 0 0-.103 1.234-1.354 1.184 0 0-1.142-.054-1.142-1.264v-1.422h-4.576v2.066S56.027 18 61.907 18c0 0 5.618.117 5.88-4.058v-1.68s.198-2.557-1.985-3.903M43.818.622l-1.437 9.23h-.337L40.67.704h-7.174L33.14 17.42h4.246l.05-12.595h.334l2.252 12.594h4.467l2.224-12.59h.296l.102 12.59h4.269L50.92.623zM18.539.691l-2.826 16.713h4.572l1.674-12.96h.375l1.673 12.96h4.571L25.753.69zm95.931 7.437v2.466h1.171v2.646c0 1.294-1.078 1.318-1.078 1.318-1.313 0-1.264-1.23-1.264-1.23V4.176c0-.943 1.165-.993 1.165-.993 1.119 0 1.127 1.124 1.127 1.124v1.392h4.303c.14-2.717-.387-3.374-.387-3.374-1.068-2.457-5.108-2.322-5.108-2.322-6.207 0-5.518 4.879-5.518 4.879v8.851c.133 4.576 6.248 4.112 6.352 4.106 2.722-.31 3.544-1.192 3.544-1.192.756-.576.95-1.374.95-1.374.216-.465.27-1.943.27-1.943V8.128h-5.528zm-14.269 2.72h-.187L95.645.625H90.42v16.799h4.253l-.254-10.222h.188l4.525 10.222h5.069V.624h-4.306zm-20.165 2.391s.062 1.378-1.185 1.378c0 0-1.314.072-1.314-1.344L77.524.636h-4.665v12.537s-.479 4.744 6.055 4.744c0 0 5.681.069 5.681-4.527V.636h-4.559V13.24zM9.644 8.358s-1.166-.74-1.889-1.025c0 0-2.233-1.06-2.676-1.566 0 0-.87-.841-.36-1.817 0 0 .212-.638 1.13-.638 0 0 1.2.067 1.2 1.075V5.81h4.296l-.009-2.097S11.665.28 6.278.13c0 0-.405-.027-1 .003 0 0-3.263.181-4.431 2.015-.006.013-.016.024-.022.034 0 0-.476.522-.476 2.34v1.312s-.05 1.514.706 2.491c0 0 .427.64 1.478 1.345 0 0 2.135 1.178 3.415 1.852 0 0 1.296.756 1.125 1.96 0 0-.105 1.236-1.354 1.186 0 0-1.142-.054-1.142-1.264V11.98H0v2.068S-.13 18 5.75 18c0 0 5.618.117 5.882-4.058v-1.68s.195-2.557-1.989-3.904" fill="#DEE4E8" fill-rule="evenodd"/></svg>