<svg width="66" height="70" xmlns="http://www.w3.org/2000/svg"><g fill="none" fill-rule="evenodd"><path d="M61 69H5a4 4 0 0 1-4-4V5a4 4 0 0 1 4-4h56a4 4 0 0 1 4 4v60a4 4 0 0 1-4 4z" stroke="#003764" stroke-width="2"/><path d="M29.46 17.81c0-6.075-4.925-11-11-11s-11 4.925-11 11 4.925 11 11 11 11-4.925 11-11zm29.08 0c0-6.075-4.925-11-11-11s-11 4.925-11 11 4.925 11 11 11 11-4.925 11-11zM29.46 45.064c0-6.075-4.925-11-11-11s-11 4.925-11 11 4.925 11 11 11 11-4.925 11-11zm29.08 0c0-6.075-4.925-11-11-11s-11 4.925-11 11 4.925 11 11 11 11-4.925 11-11z" stroke="#003764" stroke-width="2"/><path d="M26.508 61.335a2.195 2.195 0 0 0-2.197-2.193 2.195 2.195 0 0 0-2.197 2.193 2.196 2.196 0 0 0 4.394 0m7.689 0A2.195 2.195 0 0 0 32 59.142a2.195 2.195 0 0 0-2.197 2.193 2.196 2.196 0 0 0 4.394 0m7.688 0a2.195 2.195 0 0 0-2.197-2.193 2.195 2.195 0 0 0-2.197 2.193 2.196 2.196 0 0 0 4.394 0" fill="#003764"/><path d="M24.46 45.064a6 6 0 1 0-12.002.002 6 6 0 0 0 12.002-.002z" stroke="#003764" stroke-width="2"/></g></svg>