<svg width="66" height="72" xmlns="http://www.w3.org/2000/svg"><g stroke="#003764" stroke-width="2" fill="none" fill-rule="evenodd"><path d="M62.936 71H3.065A2.062 2.062 0 0 1 1 68.941V3.06C1 1.922 1.925 1 3.065 1h59.87C64.076 1 65 1.922 65 3.06v65.882a2.062 2.062 0 0 1-2.064 2.06zM65 16.105H1"/><path d="M24.338 1v7.048c0 2.45-2.01 4.454-4.467 4.454H1.001m58.453-4.118a3.608 3.608 0 0 0-3.613-3.603 3.608 3.608 0 0 0-3.613 3.603 3.608 3.608 0 0 0 3.613 3.603 3.608 3.608 0 0 0 3.613-3.603zM48.525 29.881a20.36 20.36 0 0 0-15.465-7.085c-11.258 0-20.384 9.101-20.384 20.327 0 11.227 9.126 20.328 20.384 20.328 11.257 0 20.383-9.101 20.383-20.328 0-5.058-1.852-9.684-4.918-13.242"/><path d="M30.035 4.781h6.048m-6.048 3.603h6.048m-6.048 3.603h6.048m4.533-7.206h6.048m-6.048 3.603h6.048m-6.048 3.603h6.048" stroke-linecap="round"/><path d="M14.776 8.62H10.96a2.61 2.61 0 0 1-2.613-2.604V4.88h9.04v1.135a2.608 2.608 0 0 1-2.61 2.604z" stroke-linejoin="round"/><path d="M41.738 54.465c-2.457 1.663-5.326 2.831-8.523 2.831-7.85 0-14.212-6.346-14.212-14.173s6.363-14.172 14.212-14.172c3.349 0 6.427 1.155 8.856 3.088 0 0 .684.4 0 1.145-2.431 2.646-4.08 6.068-4.08 9.94 0 3.87 1.556 7.38 4.08 9.938 0 0 .79.643-.333 1.403z"/><path d="M40.446 36.144a9.948 9.948 0 0 0-7.096-2.96c-5.504 0-9.965 4.45-9.965 9.939s4.46 9.939 9.965 9.939a9.94 9.94 0 0 0 6.797-2.672"/></g></svg>