<svg width="120" height="49" xmlns="http://www.w3.org/2000/svg"><g fill="#DEE4E8" fill-rule="evenodd"><path d="M31.115 11.041l-5.913 21.764h-3.438l-4.18-15.809-4.243 15.81H9.905L3.991 11.04h3.406l4.212 15.81 4.24-15.81h3.376l4.273 15.81 4.21-15.81zm1.577.063l3.405-.28v5.33l-.062 1.996h.124c1.579-.592 2.85-.872 4.396-.872 2.757 0 4.615 1.247 4.615 6.016v9.512h-3.407v-9.23c0-2.868-1.392-3.243-2.97-3.243-.993 0-1.829.219-2.696.468v12.005h-3.405V11.104zm17.152.218c1.764 0 2.045 1.029 2.045 2.183 0 1.152-.373 2.213-2.045 2.213s-2.013-1.06-2.013-2.213c0-1.155.31-2.183 2.013-2.183zM48.14 32.806h3.407v-15.31H48.14v15.31zm6.285-15.311h2.323l.465 1.248h.217c.897-.78 2.322-1.466 4.18-1.466.217 0 .464 0 .71.031v3.368c-.617-.093-1.268-.188-1.918-.188-.93 0-1.671.218-2.57.625v11.693h-3.407v-15.31zm9.351 15.311V11.104l3.406-.28v21.982zm27.617-15.528c4.83 0 6.69 2.868 6.69 7.95 0 4.77-1.735 7.89-6.752 7.89-5.016 0-6.782-3.12-6.782-7.89 0-5.082 2.014-7.95 6.844-7.95m3.22 7.95c0-2.9-.465-5.268-3.19-5.268-2.755 0-3.436 2.276-3.436 5.269 0 2.775.557 5.177 3.282 5.177 2.726 0 3.344-2.277 3.344-5.177m12.044-7.951c4.83 0 6.688 2.868 6.688 7.95 0 4.77-1.735 7.89-6.75 7.89-5.017 0-6.781-3.12-6.781-7.89 0-5.082 2.013-7.95 6.843-7.95m3.22 7.95c0-2.9-.465-5.268-3.189-5.268-2.756 0-3.438 2.276-3.438 5.269 0 2.775.558 5.177 3.283 5.177 2.725 0 3.345-2.277 3.345-5.177m5.726 7.577V11.104l3.405-.28v21.982z"/><path d="M92.218.815c-2.838-3.03-13.45 2.73-24.277 11.73v1.17c10.603-8.912 20.584-14.16 22.887-11.7 1.169 1.249.138 5.158-2.507 9.696-.382.175-.803.537-1.194 1.102-3.365 4.872-8.297 10.787-13.66 15.882-13.8 13.103-27.164 21.058-29.87 18.168-1.542-1.645.987-6.971 5.602-13.293h-1.28c-4.892 6.72-7.542 12.517-5.582 14.61 3.407 3.638 18.866-5.251 32.64-18.333 6.242-5.923 10.982-10.953 13.906-15.418.844-1.291.878-2.203.525-2.611 3.309-5.18 4.497-9.201 2.81-11.003"/><path d="M73.343 21.019a7.92 7.92 0 0 1 2.54-.436c1.756 0 2.893.508 3.299 2.218.882-.984 1.737-1.971 2.558-2.953-.954-1.77-2.484-2.57-4.31-2.57-1.703 0-3.437.778-4.46 1.34h-.153l-.28-1.122h-2.57v14.419a155.5 155.5 0 0 0 3.26-2.996c.116-3.275.116-4.871.116-7.9m5.965 4.611c-.236 3.473-1.554 4.4-3.458 4.4-.384 0-.725-.005-1.055-.013a131.374 131.374 0 0 1-4.826 4.342V40.1l3.405-.372v-7.017h.093c.96.187 2.01.313 2.972.313 3.964 0 6.347-2.65 6.347-8.014 0-1.026-.08-1.943-.23-2.75a132.832 132.832 0 0 1-3.248 3.37M27.326 7.026c.153-.141.264-.275.291-.49.026-.213-.102-.365-.303-.441-.375-.14-.853-.007-1.185.107-.179.062-.364.12-.56.18-.389.114-.806.215-1.246.302-.44.09-.899.167-1.372.232a27.215 27.215 0 0 1-2.938.21c-.148.002-.295.004-.444.004-.441 0-.877-.006-1.309-.02a40.33 40.33 0 0 1-1.797-.093 33.36 33.36 0 0 1-1.663-.162 24.328 24.328 0 0 1-1.484-.228c-.46-.084-.882-.178-1.262-.28a9.226 9.226 0 0 1-.954-.297 1.196 1.196 0 0 0-.444-.086c-.135 0-.32.036-.394.169-.076.137.01.293.1.393a.949.949 0 0 0 .369.244 11.98 11.98 0 0 0 1.239.423c.373.107.771.207 1.192.296.423.09.87.172 1.333.244.468.07.953.134 1.45.187.505.05 1.022.093 1.545.12a35.322 35.322 0 0 0 3.242.043 34.638 34.638 0 0 0 2.794-.195l.283-.032c-.001.2.254.319.41.369.198.063.387.079.594.065a52.174 52.174 0 0 0 2.444-.244c.8-.102 1.57-.221 2.298-.36a27.24 27.24 0 0 0 2.042-.46c.632-.17 1.208-.355 1.72-.553a9.43 9.43 0 0 0 1.335-.626 4 4 0 0 0 .896-.686c.225-.236.367-.48.428-.724a1.149 1.149 0 0 0-.072-.74c-.109-.245-.301-.491-.577-.731a5.414 5.414 0 0 0-1.076-.704 12 12 0 0 0-1.552-.653 22.691 22.691 0 0 0-1.99-.578A33.25 33.25 0 0 0 28.336.75a45.294 45.294 0 0 0-2.694-.375 55.975 55.975 0 0 0-2.933-.251A69.141 69.141 0 0 0 13.347.2a57.84 57.84 0 0 0-2.984.308C9.399.633 8.475.78 7.603.95a32.46 32.46 0 0 0-2.443.563 20.42 20.42 0 0 0-2.042.67c-.606.239-1.133.496-1.572.76-.439.266-.79.542-1.043.826-.257.283-.415.573-.476.868-.06.293-.02.589.121.884.14.295.382.588.723.874.34.286.78.566 1.313.835.535.269 1.161.526 1.875.769.716.243 1.514.47 2.388.68.874.21 1.824.4 2.837.569a59.17 59.17 0 0 0 3.204.436c1.117.12 2.278.216 3.478.286l.52.03c.164.007.31-.01.46-.077.133-.06.273-.171.286-.327.013-.162-.116-.281-.248-.347a1.08 1.08 0 0 0-.451-.113 53.292 53.292 0 0 1-4.021-.398 40.573 40.573 0 0 1-2.05-.336 31.627 31.627 0 0 1-1.828-.403 20.97 20.97 0 0 1-1.32-.38c-1.12-.36-2.019-.766-2.649-1.202A3.53 3.53 0 0 1 4 5.837a1.712 1.712 0 0 1-.346-.595 1.131 1.131 0 0 1-.022-.597c.046-.197.144-.391.295-.585.15-.192.352-.382.604-.565.246-.182.544-.36.887-.531.34-.17.73-.334 1.16-.49.233-.085.48-.168.74-.248a22.57 22.57 0 0 1 1.513-.403c.287-.068.584-.131.892-.192a33.39 33.39 0 0 1 1.774-.302 44.488 44.488 0 0 1 3.902-.393 53.295 53.295 0 0 1 8.017.129c.623.059 1.23.129 1.815.21.58.08 1.136.173 1.665.274 1.043.2 1.977.438 2.766.707.773.264 1.403.556 1.866.864.45.303.74.623.851.946.109.317.048.64-.184.95-.227.307-.62.604-1.163.88-.53.27-1.206.52-2.005.739a20.04 20.04 0 0 1-1.7.39"/><path d="M10.218 4.27a1.418 1.418 0 0 1-.517.118c-.147.005-.385-.021-.472-.175-.089-.161.052-.344.157-.446a1.57 1.57 0 0 1 .434-.288c2.232-1.05 5.287-1.41 7.701-1.41h.267c.88.007 1.76.046 2.6.12.81.07 1.582.17 2.287.297a14.4 14.4 0 0 1 1.811.443c.501.162.916.344 1.225.539.296.186.493.384.581.584a.58.58 0 0 1 .053.24.614.614 0 0 1-.112.34c-.123.183-.346.362-.666.528a6.077 6.077 0 0 1-1.165.436 13.19 13.19 0 0 1-1.521.32 20.76 20.76 0 0 1-1.724.188c-.293.019-.585.033-.883.043-.235.006-.47.01-.707.01-.054 0-.108 0-.162-.002-.266 0-.531-.008-.794-.022a14.982 14.982 0 0 1-.754-.05 13.78 13.78 0 0 1-1.323-.178 7.738 7.738 0 0 1-1.019-.255 2.839 2.839 0 0 1-.663-.303c-.154-.1-.256-.208-.299-.316a.318.318 0 0 1 .042-.303.91.91 0 0 1 .326-.261 2.76 2.76 0 0 1 .53-.205c.193-.054.41-.101.651-.137a7.258 7.258 0 0 1 1.181-.09 7.222 7.222 0 0 1 1.18.09c.24.036.458.083.65.137.21.06.39.13.532.205a.924.924 0 0 1 .325.26c.067.102.08.202.042.304a.558.558 0 0 1-.136.189l.219-.017a5.915 5.915 0 0 0 .942-.158c.136-.033.264-.073.382-.118.117-.046.223-.096.315-.15a1.03 1.03 0 0 0 .227-.172.527.527 0 0 0 .126-.191.343.343 0 0 0 .008-.205.541.541 0 0 0-.125-.21 1.082 1.082 0 0 0-.257-.208 2.664 2.664 0 0 0-.392-.2 4.97 4.97 0 0 0-.526-.177 7.02 7.02 0 0 0-.65-.155 9.794 9.794 0 0 0-.755-.12 15.628 15.628 0 0 0-.844-.077 17.554 17.554 0 0 0-.905-.03l-.105-.001c-2.326 0-5.14.33-7.318 1.24"/></g></svg>