<svg width="110" height="29" xmlns="http://www.w3.org/2000/svg"><path d="M93.128.171c-2.301.454-4.911 2.07-5.463 4.407-1.165 2.879-.614 6.37 1.553 8.63l6.38 5.46c.749.456 1.084 1.21 1.357 1.935.197.995.28 2.123-.608 2.903-.444.35-1.108.43-1.661.375-2.75-.375-1.584-3.493-1.888-5.027l-5.937.055c-.28 2.823-.253 6.155 2.274 8.144 2.637 2.154 6.685 2.449 9.625 1.21v.03c1.415-.594 2.941-1.853 3.745-3.308 1.414-3.308.887-6.935-1.388-9.679-2.381-2.125-4.796-4.113-7.242-6.29-.551-.645-.798-1.37-.881-2.205-.031-.644.247-1.263.773-1.613.475-.216.919-.376 1.496-.32.723.05 1.28.454 1.61 1.125l.253 3.362 5.71.055c-.135-1.939.391-4.112-.552-5.726C100.566.464 96.65-.418 93.128.17m-7.82 3.739c.722 1.613.386 3.707.413 5.567h-5.659l-.247-3.473c-.28-.59-.918-1.1-1.61-1.126-.78-.03-1.691.216-2.053.94-.5.804-.114 1.88.247 2.635l.837.968 6.875 5.966c1.92 2.395 2.636 5.782 1.666 8.794-1.025 2.74-3.884 4.408-6.742 4.733-2.801.35-5.601-.35-7.515-2.154-1.806-2.203-2.084-5.027-1.692-7.825l.082-.05h5.824c.253 1.614-.665 3.897 1.166 4.812.696.374 1.724.27 2.332-.16 1.026-.81.861-2.129.583-3.173-.78-1.59-2.301-2.424-3.498-3.443-.722-.618-3.022-2.448-3.022-2.448-1.012-.935-2.744-3.788-2.744-3.788-.73-2.423-.476-6.051 1.33-8.309C74.378-.123 78.51-.584 81.729.681c1.444.589 2.997 1.774 3.58 3.228m18.641 24.933H110V.606h-6.05zM59.346.6H53.32v18.983c.083 1.45-.081 3.303.388 4.647l.071.265.454.974 1.14 1.345 1.166.834c.805.51 2.218 1.1 2.532 1.1.186.08.604.08.992.11.412.074 1.469.074 2.073.055l.872-.086c.552-.1 1-.185 1.33-.335.78-.184 1.62-.723 2.038-1.13 1.084-1.049 1.816-2.002 2.31-3.212v.031c.094-.29.233-.73.28-1.24L68.998.615h-6.077v20.981c-.03.54-.196 1.074-.696 1.48-.496.403-1.357.485-1.914.159-.47-.24-.804-.7-.943-1.155L59.346.601zM51.99.6h-5.42l.006 18.068L41.545.6h-6.328L35.2 28.837h5.318l.01-18.694.026.056 5.05 18.603h6.38zM15.594.61H.806v5.178l7.789-.035L0 23.052l.027 5.776h15.592v-5.697l-8.82-.03-.027-.16 8.822-17.665zm8.073 17.735l1.578-11.613.222.01 1.665 11.603h-3.465zM29.383.605h-8.105L15.98 28.828h6.103l.862-5.415h4.936l.836 5.425h6.16L29.382.606z" fill="#DEE4E8" fill-rule="evenodd"/></svg>